<?xml version="1.0" standalone="no"?>
<!DOCTYPE svg PUBLIC "-//W3C//DTD SVG 20010904//EN"
 "http://www.w3.org/TR/2001/REC-SVG-20010904/DTD/svg10.dtd">
<svg version="1.0" xmlns="http://www.w3.org/2000/svg"
 width="837.000000pt" height="1125.000000pt" viewBox="0 0 837.000000 1125.000000"
 preserveAspectRatio="xMidYMid meet">

<g transform="translate(0.000000,1125.000000) scale(0.100000,-0.100000)"
fill="#000000" stroke="none">
<path d="M740 10731 l0 -339 -155 -318 -155 -318 0 -344 0 -344 155 -334 155
-335 0 -330 c0 -213 4 -329 10 -329 6 0 10 116 10 329 l0 329 -155 334 -155
333 0 346 0 346 146 299 c80 165 147 304 148 311 1 7 5 16 9 19 11 12 8 684
-3 684 -6 0 -10 -120 -10 -339z"/>
<path d="M1292 10718 l3 -353 158 -312 157 -313 0 -344 0 -344 -155 -318 -155
-319 0 -337 c0 -219 4 -338 10 -338 6 0 10 120 10 339 l0 338 155 317 155 317
0 345 0 344 -160 320 -160 320 0 345 c0 234 -3 345 -10 345 -8 0 -10 -112 -8
-352z"/>
<path d="M2600 10731 l0 -339 -155 -317 -155 -318 0 -346 0 -347 155 -332 155
-332 0 -330 c0 -213 4 -330 10 -330 6 0 10 116 10 329 l0 328 -155 333 -155
333 0 348 0 347 145 297 c80 164 145 303 145 311 0 7 5 16 10 19 6 4 10 130
10 346 0 219 -4 339 -10 339 -6 0 -10 -120 -10 -339z"/>
<path d="M2786 11040 c-60 -53 -71 -136 -25 -194 68 -87 196 -71 240 30 44 98
-23 194 -135 194 -36 0 -52 -6 -80 -30z"/>
<path d="M3130 10733 l-1 -338 -123 -305 c-68 -168 -121 -311 -118 -318 2 -7
8 -10 12 -5 4 4 57 134 119 288 62 154 116 284 121 289 5 5 75 -125 159 -293
l151 -301 0 -354 0 -354 -150 -308 -150 -307 0 -343 c0 -223 4 -344 10 -344 6
0 10 121 10 344 l0 344 150 307 150 307 0 354 0 354 -160 320 -160 320 0 340
c0 220 -4 340 -10 340 -6 0 -10 -119 -10 -337z"/>
<path d="M4438 10718 l-3 -353 -147 -298 -148 -298 0 -358 0 -357 150 -323
150 -323 0 -334 c0 -216 4 -334 10 -334 6 0 10 118 10 333 l0 333 -150 323
-150 323 0 359 0 358 140 288 c77 158 144 289 148 290 4 2 52 -100 106 -225
55 -125 117 -264 138 -308 l38 -82 0 -341 c0 -221 4 -341 10 -341 6 0 10 125
10 355 0 292 -3 360 -14 378 -8 12 -73 156 -145 319 l-131 298 0 335 c0 208
-4 335 -10 335 -6 0 -10 -135 -12 -352z"/>
<path d="M4990 10732 c0 -186 3 -342 7 -346 4 -4 8 -13 8 -19 0 -7 69 -148
153 -314 l152 -303 0 -354 0 -354 -150 -307 -150 -307 0 -344 c0 -189 3 -344
8 -344 4 0 7 154 7 343 l0 342 153 309 152 309 0 353 0 354 -160 320 -160 320
0 340 c0 220 -4 340 -10 340 -6 0 -10 -119 -10 -338z"/>
<path d="M6320 10732 l0 -338 -155 -318 -155 -317 0 -348 0 -348 155 -333 155
-333 0 -328 c0 -213 4 -329 10 -329 6 0 10 116 10 328 l0 327 -155 334 -155
334 0 348 0 348 143 295 c78 162 146 294 150 293 5 -1 67 -134 138 -295 l129
-293 0 -354 c0 -230 4 -355 10 -355 6 0 10 121 10 344 l0 344 120 298 c66 164
125 303 130 308 5 5 69 -112 159 -293 l151 -301 0 -354 0 -353 -150 -308 -150
-307 2 -346 2 -347 6 345 5 345 150 300 150 300 3 362 3 362 -161 320 -160
321 0 340 c0 220 -4 340 -10 340 -6 0 -10 -119 -10 -336 l0 -335 -121 -300
c-67 -165 -125 -296 -129 -292 -4 4 -64 137 -134 294 l-126 285 0 342 c0 221
-4 342 -10 342 -6 0 -10 -119 -10 -338z"/>
<path d="M4674 11041 c-30 -14 -47 -30 -63 -63 -26 -54 -27 -93 -2 -138 52
-99 184 -107 241 -15 31 51 34 94 8 144 -42 81 -109 107 -184 72z"/>
<path d="M970 11013 c-74 -38 -102 -132 -60 -200 28 -46 65 -67 120 -67 108 0
172 106 122 203 -35 69 -117 98 -182 64z"/>
<path d="M6535 11011 c-141 -63 -91 -265 65 -265 155 0 206 192 70 262 -53 27
-82 27 -135 3z"/>
<path d="M2815 10635 c-22 -8 -41 -15 -42 -15 -1 0 -14 -17 -28 -37 -48 -72
-27 -174 46 -217 37 -22 117 -20 155 3 41 25 78 101 70 144 -19 98 -111 154
-201 122z"/>
<path d="M4677 10606 c-68 -25 -97 -66 -97 -140 0 -83 87 -148 174 -132 48 9
103 59 117 106 10 34 9 44 -12 87 -37 73 -110 105 -182 79z"/>
<path d="M950 10578 c-75 -51 -96 -118 -61 -192 40 -82 146 -110 219 -57 89
63 76 208 -22 255 -47 22 -97 20 -136 -6z"/>
<path d="M6531 10581 c-41 -22 -81 -85 -81 -129 0 -57 35 -111 87 -134 111
-49 224 30 210 148 -12 106 -122 165 -216 115z"/>
<path d="M3547 10433 c-11 -11 -8 -163 3 -163 6 0 10 35 10 85 0 85 -1 91 -13
78z"/>
<path d="M4097 10433 c-11 -11 -8 -163 3 -163 6 0 10 35 10 85 0 85 -1 91 -13
78z"/>
<path d="M5957 10433 c-11 -11 -8 -163 3 -163 6 0 10 35 10 85 0 85 -1 91 -13
78z"/>
<path d="M7310 10356 c0 -51 4 -86 10 -86 6 0 10 33 10 79 0 44 -4 83 -10 86
-6 4 -10 -25 -10 -79z"/>
<path d="M175 10410 c3 -5 15 -10 26 -10 17 0 19 -7 19 -65 0 -37 4 -65 10
-65 6 0 10 28 10 65 0 58 2 65 19 65 11 0 23 5 26 10 4 6 -17 10 -55 10 -38 0
-59 -4 -55 -10z"/>
<path d="M1453 10407 c25 -10 27 -14 27 -74 0 -35 4 -63 10 -63 6 0 10 28 10
65 0 58 2 65 19 65 11 0 23 5 26 10 4 6 -17 10 -57 9 -56 -1 -60 -2 -35 -12z"/>
<path d="M2063 10407 c25 -10 27 -14 27 -74 0 -35 4 -63 10 -63 6 0 10 28 10
65 0 58 2 65 19 65 11 0 23 5 26 10 4 6 -17 10 -57 9 -56 -1 -60 -2 -35 -12z"/>
<path d="M3330 10345 c0 -43 4 -75 10 -75 6 0 10 14 10 30 0 25 4 30 24 30 35
0 42 18 9 22 -20 2 -29 9 -31 26 -3 18 1 22 22 22 14 0 28 5 31 10 4 6 -10 10
-34 10 l-41 0 0 -75z"/>
<path d="M3880 10345 c0 -43 4 -75 10 -75 6 0 10 14 10 30 0 25 4 30 24 30 35
0 42 18 9 22 -20 2 -29 9 -31 26 -3 18 1 22 22 22 14 0 28 5 31 10 4 6 -10 10
-34 10 l-41 0 0 -75z"/>
<path d="M5195 10410 c4 -6 14 -9 23 -8 14 3 17 -8 20 -64 4 -87 22 -89 22 -3
0 58 2 65 19 65 11 0 23 5 26 10 4 6 -17 10 -55 10 -39 0 -59 -4 -55 -10z"/>
<path d="M5740 10345 c0 -43 4 -75 10 -75 6 0 10 14 10 30 0 25 4 30 25 30 31
0 33 17 3 22 -15 2 -24 11 -26 26 -3 18 1 22 22 22 14 0 28 5 31 10 4 6 -10
10 -34 10 l-41 0 0 -75z"/>
<path d="M7090 10345 c0 -60 3 -75 15 -75 10 0 15 10 15 30 0 23 5 30 19 30
11 0 23 5 26 10 4 6 -5 10 -19 10 -21 0 -26 5 -26 25 0 20 5 25 25 25 14 0 25
5 25 10 0 6 -18 10 -40 10 l-40 0 0 -75z"/>
<path d="M5853 10379 c-29 -11 -30 -23 -1 -16 12 4 28 1 36 -6 12 -9 8 -13
-19 -22 -26 -9 -34 -17 -34 -36 0 -21 5 -24 43 -27 l42 -3 0 43 c0 62 -22 84
-67 67z m41 -68 c9 -15 -18 -31 -34 -20 -13 8 -13 10 0 19 19 12 27 12 34 1z"/>
<path d="M7213 10379 c-31 -11 -29 -20 3 -17 15 2 29 -3 31 -9 3 -7 -2 -13
-11 -13 -9 0 -25 -9 -37 -21 -28 -28 -10 -49 42 -49 38 0 39 1 39 36 0 62 -25
89 -67 73z m37 -73 c0 -17 -27 -29 -35 -16 -4 6 -3 15 0 20 9 15 35 12 35 -4z"/>
<path d="M7368 10370 l-23 -20 33 -28 c36 -30 34 -45 -4 -36 -15 4 -24 2 -24
-6 0 -7 14 -10 38 -8 30 2 38 7 40 25 2 17 -4 26 -23 35 -27 12 -29 34 -1 32
20 -2 21 12 1 19 -7 3 -24 -3 -37 -13z"/>
<path d="M290 10325 c0 -30 5 -55 10 -55 6 0 10 18 10 41 0 32 4 42 20 46 30
8 24 23 -10 23 -30 0 -30 -1 -30 -55z"/>
<path d="M372 10328 l3 -53 43 -1 42 -2 0 54 c0 64 -17 73 -22 12 -2 -36 -7
-44 -25 -46 -21 -3 -23 1 -23 42 0 26 -5 46 -11 46 -6 0 -9 -21 -7 -52z"/>
<path d="M502 10368 c-7 -7 -12 -26 -12 -43 0 -17 5 -36 12 -43 15 -15 78 -16
78 -1 0 6 -9 8 -20 4 -21 -7 -50 9 -50 26 0 5 18 9 40 9 41 0 47 8 30 41 -12
22 -59 26 -78 7z m56 -16 c2 -7 -7 -12 -23 -12 -24 0 -26 2 -15 15 14 17 31
16 38 -3z"/>
<path d="M1550 10325 c0 -30 5 -55 10 -55 6 0 10 13 10 29 0 39 9 61 26 61 8
0 14 5 14 10 0 6 -13 10 -30 10 -30 0 -30 -1 -30 -55z"/>
<path d="M1630 10341 c0 -63 7 -71 56 -71 l44 0 0 55 c0 61 -17 76 -22 19 -6
-73 -58 -69 -58 4 0 17 -4 32 -10 32 -5 0 -10 -18 -10 -39z"/>
<path d="M1758 10355 c-19 -42 0 -79 41 -83 18 -2 39 2 45 9 8 9 6 10 -12 6
-30 -7 -52 1 -52 19 0 9 12 14 35 14 27 0 35 4 35 18 0 47 -72 60 -92 17z m53
-13 c-28 -4 -40 6 -21 18 9 6 20 4 29 -3 12 -10 11 -13 -8 -15z"/>
<path d="M2160 10325 c0 -42 3 -55 15 -55 11 0 15 11 15 39 0 29 6 43 23 54
22 16 21 16 -15 16 l-38 1 0 -55z"/>
<path d="M2240 10341 c0 -63 7 -71 56 -71 l44 0 0 55 c0 61 -17 76 -22 19 -6
-73 -58 -69 -58 4 0 17 -4 32 -10 32 -5 0 -10 -18 -10 -39z"/>
<path d="M2368 10355 c-19 -42 0 -79 41 -83 18 -2 39 2 45 9 8 9 6 10 -12 6
-30 -7 -52 1 -52 19 0 9 12 14 35 14 27 0 35 4 35 18 0 47 -72 60 -92 17z m53
-13 c-28 -4 -40 6 -21 18 9 6 20 4 29 -3 12 -10 11 -13 -8 -15z"/>
<path d="M3430 10370 c0 -6 8 -10 18 -9 51 5 58 -14 10 -27 -26 -8 -33 -15
-33 -34 0 -22 5 -25 43 -28 l43 -3 -3 53 -3 53 -37 3 c-23 2 -38 -1 -38 -8z
m60 -59 c0 -5 -6 -14 -14 -20 -16 -13 -32 2 -21 19 8 12 35 13 35 1z"/>
<path d="M3597 10373 c-16 -15 -6 -44 19 -53 30 -12 27 -36 -5 -33 -11 2 -21
-2 -21 -8 0 -6 14 -9 33 -7 42 4 49 38 12 62 -28 19 -24 40 6 31 11 -4 19 -2
19 4 0 12 -52 15 -63 4z"/>
<path d="M3690 10361 c-14 -26 -13 -64 2 -79 15 -15 75 -16 84 -1 5 8 -1 10
-19 5 -18 -4 -31 -1 -43 11 -17 17 -16 18 24 21 32 2 42 7 42 21 0 41 -70 58
-90 22z m60 -6 c11 -13 8 -15 -14 -15 -25 0 -33 10 -19 23 10 11 19 8 33 -8z"/>
<path d="M3980 10370 c0 -6 12 -9 26 -8 15 2 29 -3 31 -9 3 -7 -2 -13 -10 -13
-26 0 -59 -34 -52 -53 5 -12 18 -17 47 -17 l39 0 -3 53 -3 52 -37 3 c-23 2
-38 -1 -38 -8z m60 -64 c0 -17 -27 -29 -35 -16 -4 6 -3 15 0 20 9 15 35 12 35
-4z"/>
<path d="M4143 10363 c-4 -11 3 -24 22 -38 30 -25 26 -50 -6 -40 -11 4 -19 2
-19 -4 0 -17 67 -13 74 4 8 21 -3 43 -25 50 -10 4 -19 13 -19 21 0 11 6 13 20
9 11 -4 20 -2 20 4 0 18 -60 13 -67 -6z"/>
<path d="M4239 10353 c-7 -17 -7 -38 -2 -53 7 -21 16 -26 51 -28 27 -2 42 1
42 9 0 7 -8 9 -21 6 -27 -7 -49 1 -49 19 0 9 12 14 36 14 33 0 35 2 32 28 -3
23 -8 27 -41 30 -33 3 -38 0 -48 -25z m52 -11 c-28 -4 -40 6 -21 18 9 6 20 4
29 -3 12 -10 11 -13 -8 -15z"/>
<path d="M5310 10325 c0 -30 5 -55 10 -55 6 0 10 18 10 41 0 32 4 42 20 46 30
8 24 23 -10 23 -30 0 -30 -1 -30 -55z"/>
<path d="M5392 10328 l3 -53 48 -2 48 -2 -3 51 c-4 65 -26 76 -30 16 -2 -35
-7 -43 -23 -43 -16 0 -21 8 -23 43 -2 23 -8 42 -13 42 -6 0 -9 -22 -7 -52z"/>
<path d="M5520 10365 c-7 -8 -12 -26 -12 -40 0 -14 5 -32 12 -40 14 -17 80
-21 80 -4 0 6 -9 8 -20 4 -21 -7 -50 9 -50 26 0 5 15 9 34 9 41 0 47 7 35 38
-10 26 -59 31 -79 7z m58 -13 c2 -7 -7 -12 -23 -12 -24 0 -26 2 -15 15 14 17
31 16 38 -3z"/>
<path d="M6007 10373 c-15 -15 -5 -44 18 -55 30 -13 27 -34 -4 -31 -11 2 -21
-2 -21 -8 0 -6 14 -9 33 -7 43 4 51 42 12 60 -30 14 -28 34 4 31 13 -2 20 1
16 7 -7 11 -48 14 -58 3z"/>
<path d="M6102 10368 c-7 -7 -12 -26 -12 -43 0 -17 5 -36 12 -43 15 -15 78
-16 78 -1 0 6 -7 8 -16 5 -17 -7 -54 10 -54 24 0 6 18 10 40 10 32 0 40 4 40
18 0 25 -20 42 -50 42 -14 0 -31 -5 -38 -12z m56 -16 c2 -7 -7 -12 -23 -12
-24 0 -26 2 -15 15 14 17 31 16 38 -3z"/>
<path d="M7455 10356 c-17 -26 -13 -64 9 -78 17 -12 76 -9 76 3 0 6 -9 8 -20
4 -21 -7 -50 9 -50 26 0 5 16 9 36 9 33 0 35 2 32 28 -2 22 -8 28 -35 30 -25
3 -35 -2 -48 -22z m63 -4 c2 -7 -7 -12 -23 -12 -24 0 -26 2 -15 15 14 17 31
16 38 -3z"/>
<path d="M1030 9400 c0 -227 4 -350 10 -350 6 0 10 123 10 350 0 227 -4 350
-10 350 -6 0 -10 -123 -10 -350z"/>
<path d="M2877 9743 c-12 -11 -8 -693 3 -693 6 0 10 123 10 350 0 193 -1 350
-3 350 -2 0 -7 -3 -10 -7z"/>
<path d="M750 6925 c0 -223 4 -345 10 -345 6 0 10 122 10 345 0 223 -4 345
-10 345 -6 0 -10 -122 -10 -345z"/>
<path d="M1300 6931 c0 -216 4 -342 10 -346 7 -4 10 112 10 339 0 224 -4 346
-10 346 -6 0 -10 -120 -10 -339z"/>
<path d="M2625 6925 c0 -192 1 -270 2 -172 2 98 2 256 0 350 -1 95 -3 15 -2
-178z"/>
<path d="M3150 6933 l0 -337 -91 -226 c-50 -124 -107 -262 -127 -308 -25 -59
-32 -86 -24 -94 8 -8 15 -1 24 23 8 19 61 150 118 292 58 141 108 257 112 257
4 0 75 -135 158 -300 l150 -300 0 -350 0 -350 -150 -307 -150 -306 2 -351 2
-351 6 350 5 350 153 308 152 308 0 349 0 350 -160 320 -160 321 0 345 c0 223
-4 344 -10 344 -6 0 -10 -119 -10 -337z"/>
<path d="M4460 6925 l0 -345 -150 -310 -150 -310 0 -354 0 -354 150 -323 150
-323 0 -338 c0 -219 4 -338 10 -338 6 0 10 119 10 338 l0 337 -150 323 -150
323 0 355 0 355 143 294 c78 162 146 290 150 286 5 -5 60 -125 123 -267 63
-143 124 -279 135 -304 20 -42 21 -64 20 -382 0 -202 4 -340 10 -343 5 -4 9
130 9 355 0 294 -3 365 -14 383 -8 12 -73 156 -145 319 l-131 297 0 335 c0
217 -4 336 -10 336 -6 0 -10 -122 -10 -345z"/>
<path d="M5010 6931 c0 -222 4 -342 10 -346 6 -4 10 -12 8 -18 -1 -7 69 -153
155 -324 l157 -313 0 -340 0 -339 -155 -317 -155 -317 0 -344 c0 -222 4 -343
10 -343 6 0 10 121 10 344 l0 343 150 307 150 308 0 359 0 359 -160 320 -160
320 0 340 c0 220 -4 340 -10 340 -6 0 -10 -120 -10 -339z"/>
<path d="M6340 6926 l0 -343 -59 -124 c-32 -68 -100 -207 -150 -309 l-91 -185
0 -357 0 -358 101 -217 c56 -120 123 -265 150 -322 l49 -104 0 -338 c0 -219 4
-339 10 -339 6 0 10 119 10 338 l0 338 -150 321 -150 321 0 357 0 357 142 293
c110 227 146 291 155 283 7 -6 13 -14 13 -18 0 -5 56 -135 125 -290 l125 -282
0 -354 c0 -229 4 -354 10 -354 6 0 10 123 10 350 l0 351 121 299 c67 165 126
300 130 300 5 0 76 -135 159 -300 l150 -300 0 -349 0 -349 -155 -317 -155
-317 0 -339 c0 -219 4 -339 10 -339 6 0 10 120 10 339 l0 339 155 317 155 318
0 348 0 349 -160 320 -160 320 0 345 c0 223 -4 345 -10 345 -6 0 -10 -118 -10
-334 l0 -334 -101 -248 c-55 -137 -109 -273 -120 -301 -11 -29 -24 -53 -28
-53 -5 0 -19 24 -31 53 -12 28 -71 163 -131 299 l-109 246 0 336 c0 217 -4
336 -10 336 -6 0 -10 -121 -10 -344z"/>
<path d="M6549 7204 c-126 -79 -68 -264 83 -264 112 0 183 125 123 217 -39 59
-147 83 -206 47z"/>
<path d="M6595 6790 c-45 -10 -71 -30 -94 -71 -56 -98 13 -221 123 -221 62 0
106 27 134 82 28 55 28 84 -1 134 -33 60 -100 91 -162 76z"/>
<path d="M3560 6545 c0 -50 4 -85 10 -85 6 0 10 35 10 85 0 50 -4 85 -10 85
-6 0 -10 -35 -10 -85z"/>
<path d="M4110 6545 c0 -50 4 -85 10 -85 6 0 10 35 10 85 0 50 -4 85 -10 85
-6 0 -10 -35 -10 -85z"/>
<path d="M5980 6545 c0 -50 4 -85 10 -85 6 0 10 35 10 85 0 50 -4 85 -10 85
-6 0 -10 -35 -10 -85z"/>
<path d="M7340 6545 c0 -50 4 -85 10 -85 6 0 10 35 10 85 0 50 -4 85 -10 85
-6 0 -10 -35 -10 -85z"/>
<path d="M180 6610 c0 -5 11 -10 25 -10 24 0 25 -2 25 -70 0 -40 4 -70 10 -70
6 0 10 30 10 70 0 68 1 70 25 70 14 0 25 5 25 10 0 6 -27 10 -60 10 -33 0 -60
-4 -60 -10z"/>
<path d="M1450 6610 c0 -5 9 -10 20 -10 17 0 19 -8 22 -67 2 -42 8 -68 16 -71
9 -3 12 15 12 67 0 69 1 71 26 71 14 0 23 4 19 10 -3 6 -31 10 -61 10 -30 0
-54 -4 -54 -10z"/>
<path d="M2060 6611 c0 -5 10 -11 23 -13 20 -3 22 -9 25 -70 4 -90 22 -88 22
2 0 68 1 70 25 70 14 0 25 5 25 10 0 6 -27 10 -60 10 -33 0 -60 -4 -60 -9z"/>
<path d="M3350 6540 c0 -47 4 -80 10 -80 6 0 10 16 10 35 0 31 3 35 25 35 14
0 25 5 25 10 0 6 -11 10 -25 10 -20 0 -25 5 -25 25 0 21 5 25 30 25 17 0 30 5
30 10 0 6 -18 10 -40 10 l-40 0 0 -80z"/>
<path d="M3900 6540 c0 -47 4 -80 10 -80 6 0 10 16 10 35 0 32 2 35 30 35 17
0 30 5 30 10 0 6 -13 10 -30 10 -25 0 -30 4 -30 25 0 21 5 25 30 25 17 0 30 5
30 10 0 6 -18 10 -40 10 l-40 0 0 -80z"/>
<path d="M5215 6610 c-4 -6 5 -10 19 -10 25 0 26 -2 26 -70 0 -90 18 -92 22
-2 3 61 5 67 26 70 12 2 22 8 22 13 0 12 -107 12 -115 -1z"/>
<path d="M5760 6540 c0 -47 4 -80 10 -80 6 0 10 16 10 35 0 32 2 35 30 35 17
0 30 5 30 10 0 6 -13 10 -30 10 -25 0 -30 4 -30 25 0 21 5 25 30 25 17 0 30 5
30 10 0 6 -18 10 -40 10 l-40 0 0 -80z"/>
<path d="M7120 6540 c0 -47 4 -80 10 -80 6 0 10 16 10 35 0 32 2 35 30 35 17
0 30 5 30 10 0 6 -13 10 -30 10 -25 0 -30 4 -30 25 0 21 5 25 30 25 17 0 30 5
30 10 0 6 -18 10 -40 10 l-40 0 0 -80z"/>
<path d="M300 6518 c0 -32 4 -58 10 -58 6 0 10 18 10 40 0 29 5 43 20 52 28
18 25 27 -10 26 -30 -1 -30 -1 -30 -60z"/>
<path d="M380 6531 c0 -56 12 -70 58 -69 l32 1 0 59 c0 32 -4 58 -10 58 -5 0
-10 -20 -10 -44 0 -31 -5 -46 -16 -50 -26 -10 -34 2 -34 50 0 24 -4 44 -10 44
-5 0 -10 -22 -10 -49z"/>
<path d="M516 6564 c-21 -20 -20 -68 0 -89 18 -17 81 -17 76 0 -2 6 -12 9 -23
7 -23 -4 -52 16 -43 29 3 5 21 9 40 9 36 0 41 9 24 41 -13 23 -53 25 -74 3z
m54 -19 c0 -9 -9 -15 -25 -15 -18 0 -23 4 -19 15 4 8 15 15 25 15 10 0 19 -7
19 -15z"/>
<path d="M1562 6523 c4 -65 22 -75 26 -14 3 33 8 44 23 48 32 9 21 22 -16 21
l-36 -1 3 -54z"/>
<path d="M1650 6525 c0 -30 3 -56 8 -56 4 -1 24 -3 45 -4 l37 -2 0 58 c0 33
-4 59 -10 59 -5 0 -10 -17 -10 -39 0 -39 -20 -68 -40 -56 -5 3 -10 26 -10 51
0 24 -4 44 -10 44 -5 0 -10 -25 -10 -55z"/>
<path d="M1782 6568 c-21 -21 -15 -86 9 -98 24 -13 61 -10 66 7 3 7 -3 9 -16
6 -23 -6 -54 14 -45 28 3 5 21 9 40 9 38 0 45 18 18 44 -18 19 -55 21 -72 4z
m58 -23 c0 -9 -9 -15 -25 -15 -24 0 -32 10 -18 23 12 13 43 7 43 -8z"/>
<path d="M2180 6518 c0 -32 4 -58 10 -58 6 0 10 18 10 40 0 29 5 43 20 52 28
18 25 27 -10 26 -30 -1 -30 -1 -30 -60z"/>
<path d="M2260 6531 c0 -56 12 -70 58 -69 l32 1 0 59 c0 32 -4 58 -10 58 -5 0
-10 -20 -10 -44 0 -31 -5 -46 -16 -50 -26 -10 -34 2 -34 50 0 24 -4 44 -10 44
-5 0 -10 -22 -10 -49z"/>
<path d="M2396 6564 c-24 -23 -21 -81 5 -94 24 -13 61 -10 66 7 3 7 -3 9 -16
6 -23 -6 -54 14 -45 28 3 5 21 9 40 9 36 0 41 9 24 41 -13 23 -53 25 -74 3z
m54 -19 c0 -9 -9 -15 -25 -15 -24 0 -32 10 -18 23 12 13 43 7 43 -8z"/>
<path d="M3457 6573 c-13 -13 -7 -19 20 -18 14 0 28 -6 30 -12 3 -8 -5 -13
-20 -13 -13 0 -30 -7 -38 -16 -20 -24 1 -49 45 -51 l36 -1 0 47 c0 26 -5 52
-12 59 -13 13 -50 16 -61 5z m53 -72 c0 -6 -5 -13 -10 -16 -15 -9 -43 3 -35
15 8 13 45 13 45 1z"/>
<path d="M3617 6573 c-15 -14 -6 -41 18 -57 33 -21 32 -40 0 -33 -16 3 -24 0
-22 -7 2 -6 17 -11 33 -11 24 0 30 5 32 26 2 19 -3 28 -23 37 -32 15 -32 32 1
32 14 0 23 4 19 10 -7 11 -48 14 -58 3z"/>
<path d="M3716 6564 c-21 -20 -20 -68 0 -89 18 -17 81 -17 76 0 -2 6 -12 9
-23 7 -23 -4 -52 16 -43 29 3 5 21 9 40 9 26 0 34 4 34 18 0 40 -54 57 -84 26z
m62 -21 c2 -8 -6 -13 -22 -13 -25 0 -33 10 -19 24 10 10 36 3 41 -11z"/>
<path d="M4007 6574 c-15 -16 -6 -23 23 -17 23 4 30 2 30 -9 0 -9 -12 -18 -29
-21 -59 -12 -45 -69 16 -64 l34 2 -3 55 c-3 53 -4 55 -33 58 -17 2 -34 0 -38
-4z m51 -76 c-7 -19 -38 -22 -38 -4 0 10 9 16 21 16 12 0 19 -5 17 -12z"/>
<path d="M4171 6566 c-15 -18 -5 -41 25 -55 31 -14 21 -35 -13 -26 -18 4 -24
2 -21 -7 7 -20 59 -16 72 5 9 15 6 22 -16 41 -33 26 -35 36 -8 36 11 0 20 5
20 10 0 15 -46 12 -59 -4z"/>
<path d="M4270 6565 c-17 -21 -17 -69 0 -90 8 -10 25 -15 43 -13 41 4 45 23 5
23 -48 0 -44 28 4 35 36 5 37 6 25 30 -15 30 -58 38 -77 15z m58 -22 c2 -8 -6
-13 -22 -13 -25 0 -33 10 -19 24 10 10 36 3 41 -11z"/>
<path d="M5330 6519 c0 -67 17 -80 22 -17 2 33 8 45 26 54 27 13 19 22 -20 22
-27 0 -28 -2 -28 -59z"/>
<path d="M5410 6540 c0 -63 13 -79 60 -77 l40 1 0 58 c0 32 -4 58 -10 58 -5 0
-10 -17 -10 -39 0 -40 -23 -72 -40 -55 -5 5 -10 27 -12 48 -4 55 -28 60 -28 6z"/>
<path d="M5546 6564 c-21 -20 -20 -68 0 -89 18 -17 81 -17 76 0 -2 6 -12 9
-23 7 -23 -4 -52 16 -43 29 3 5 21 9 40 9 36 0 41 9 24 41 -13 23 -53 25 -74
3z m59 -19 c0 -5 -10 -11 -22 -13 -16 -2 -23 2 -23 13 0 11 7 15 23 13 12 -2
22 -7 22 -13z"/>
<path d="M5867 6573 c-14 -13 -6 -22 19 -20 37 3 41 -19 6 -26 -62 -12 -46
-70 17 -64 32 4 36 8 39 34 5 50 -13 83 -46 83 -16 0 -32 -3 -35 -7z m51 -75
c-7 -19 -38 -22 -38 -4 0 10 9 16 21 16 12 0 19 -5 17 -12z"/>
<path d="M6031 6566 c-15 -18 -5 -41 25 -55 31 -14 21 -35 -13 -26 -18 4 -24
2 -21 -7 7 -20 59 -16 72 5 9 15 6 22 -16 41 -33 26 -35 36 -8 36 11 0 20 5
20 10 0 15 -46 12 -59 -4z"/>
<path d="M6126 6558 c-9 -12 -16 -29 -16 -38 0 -30 30 -60 60 -60 41 0 47 18
8 22 -22 2 -34 9 -36 21 -3 14 4 17 32 17 28 0 36 4 36 18 0 44 -58 57 -84 20z
m62 -15 c2 -8 -6 -13 -22 -13 -25 0 -33 10 -19 24 10 10 36 3 41 -11z"/>
<path d="M7227 6573 c-14 -13 -6 -22 19 -20 37 3 41 -19 6 -26 -62 -12 -46
-70 17 -64 32 4 36 8 39 34 5 50 -13 83 -46 83 -16 0 -32 -3 -35 -7z m51 -75
c-7 -19 -38 -22 -38 -4 0 10 9 16 21 16 12 0 19 -5 17 -12z"/>
<path d="M7391 6566 c-15 -18 -5 -41 25 -55 31 -14 21 -35 -13 -26 -18 4 -24
2 -21 -7 7 -20 59 -16 72 5 9 15 6 22 -16 41 -33 26 -35 36 -8 36 11 0 20 5
20 10 0 15 -46 12 -59 -4z"/>
<path d="M7486 6558 c-9 -12 -16 -29 -16 -38 0 -30 30 -60 60 -60 41 0 47 18
8 22 -22 2 -34 9 -36 21 -3 14 4 17 32 17 28 0 36 4 36 18 0 44 -58 57 -84 20z
m62 -15 c2 -8 -6 -13 -22 -13 -25 0 -33 10 -19 24 10 10 36 3 41 -11z"/>
<path d="M597 6269 l-147 -300 0 -362 0 -362 150 -323 150 -323 0 -334 c0
-217 4 -335 10 -335 6 0 10 118 10 335 l0 334 -155 332 -155 332 0 343 0 343
150 307 c83 169 150 309 150 310 0 2 -4 4 -8 4 -5 0 -75 -135 -155 -301z"/>
<path d="M1318 6565 c-3 -3 64 -143 149 -312 l153 -307 0 -354 0 -353 -69
-142 c-38 -78 -105 -217 -150 -309 l-81 -167 0 -347 c0 -191 2 -345 6 -342 3
3 5 155 4 338 l-1 332 156 318 155 318 0 355 0 355 -155 311 c-86 171 -157
311 -159 311 -1 0 -5 -2 -8 -5z"/>
<path d="M2605 6560 c-10 -16 -128 -257 -216 -439 l-79 -163 0 -353 0 -353
153 -323 152 -324 5 -340 6 -340 2 341 2 341 -150 323 -150 322 0 354 0 354
142 293 c79 160 147 295 151 298 5 4 4 9 -1 13 -6 3 -14 2 -17 -4z"/>
<path d="M2595 5949 c-40 -12 -58 -27 -84 -69 -57 -93 10 -220 117 -222 82 -1
142 61 142 147 0 99 -87 170 -175 144z"/>
<path d="M2897 5943 c-12 -11 -8 -703 3 -703 6 0 10 125 10 355 0 195 -1 355
-3 355 -2 0 -7 -3 -10 -7z"/>
<path d="M1040 5590 c0 -227 4 -350 10 -350 6 0 10 123 10 350 0 227 -4 350
-10 350 -6 0 -10 -123 -10 -350z"/>
<path d="M5010 5922 c-48 -25 -85 -98 -75 -149 8 -46 71 -110 112 -115 73 -9
152 41 169 107 29 115 -99 213 -206 157z"/>
<path d="M695 5685 c-110 -39 -134 -164 -46 -238 83 -69 214 -29 241 75 10 35
8 46 -12 86 -36 73 -109 103 -183 77z"/>
<path d="M1285 5685 c-94 -34 -124 -147 -59 -225 44 -52 130 -63 190 -23 35
23 67 96 59 135 -8 36 -46 93 -73 107 -34 18 -78 20 -117 6z"/>
<path d="M2551 5493 c-66 -33 -93 -108 -62 -177 25 -59 69 -86 136 -86 85 0
145 57 145 139 0 109 -115 175 -219 124z"/>
<path d="M5004 5481 c-111 -51 -111 -201 -1 -251 52 -24 75 -25 127 -4 47 19
90 82 90 131 0 34 -33 87 -70 114 -39 29 -98 33 -146 10z"/>
<path d="M740 3130 c0 -220 4 -340 10 -340 6 0 10 120 10 340 0 220 -4 340
-10 340 -6 0 -10 -120 -10 -340z"/>
<path d="M1290 3132 c0 -186 3 -342 7 -346 4 -4 8 -13 8 -19 0 -7 69 -148 153
-314 l152 -303 0 -350 0 -350 -155 -321 -155 -320 0 -334 c0 -291 2 -335 15
-335 13 0 15 45 15 344 l0 343 150 308 150 307 0 354 0 354 -160 320 -160 320
0 340 c0 220 -4 340 -10 340 -6 0 -10 -119 -10 -338z"/>
<path d="M2600 3126 l0 -343 -150 -307 -150 -308 0 -356 0 -357 150 -321 150
-322 0 -336 c0 -292 2 -336 15 -336 13 0 15 43 15 328 l0 328 -155 332 -155
332 0 352 0 353 145 296 c80 163 145 303 145 312 0 9 5 19 10 22 6 4 10 128
10 341 0 290 -2 334 -15 334 -13 0 -15 -45 -15 -344z"/>
<path d="M3140 3135 l0 -335 -54 -132 c-164 -402 -195 -482 -187 -496 7 -12 9
-12 14 -1 3 8 48 120 100 249 137 338 136 337 148 320 5 -8 75 -144 154 -302
l145 -288 0 -350 0 -351 -86 -177 c-48 -97 -117 -241 -155 -319 l-69 -142 0
-335 c0 -292 2 -336 15 -336 13 0 15 45 15 343 l0 344 150 306 150 307 0 355
0 355 -160 320 -160 320 0 340 c0 220 -4 340 -10 340 -6 0 -10 -118 -10 -335z"/>
<path d="M4450 3127 l0 -344 -150 -307 -150 -307 0 -357 0 -358 150 -322 150
-322 0 -335 c0 -291 2 -335 15 -335 13 0 15 43 15 328 l0 328 -155 332 -155
331 0 354 0 354 98 199 c54 109 118 241 142 292 24 50 47 92 50 92 7 0 56
-107 210 -454 l70 -159 0 -343 c0 -304 2 -344 15 -344 14 0 16 40 13 358 -2
251 -6 363 -14 373 -7 8 -71 147 -143 310 l-131 296 0 341 c0 297 -2 342 -15
342 -13 0 -15 -45 -15 -343z"/>
<path d="M5000 3140 c0 -182 4 -338 8 -348 5 -9 79 -160 165 -335 l157 -317 0
-343 0 -343 -86 -174 c-47 -96 -117 -240 -155 -318 l-69 -144 0 -339 c0 -219
4 -339 10 -339 6 0 10 119 10 338 l0 339 155 317 155 316 0 345 0 345 -160
320 -160 320 0 345 c0 300 -2 345 -15 345 -13 0 -15 -43 -15 -330z"/>
<path d="M6334 3127 l0 -342 -152 -309 -152 -309 0 -355 0 -355 154 -331 153
-331 -1 -315 c-1 -173 0 -321 2 -327 2 -7 8 -13 13 -13 5 0 9 142 9 328 l0
328 -155 333 -155 333 0 351 0 351 143 293 c78 161 146 291 151 290 5 -2 67
-135 138 -296 l128 -293 0 -354 c0 -229 4 -354 10 -354 6 0 10 122 10 345 l0
345 85 209 c136 336 156 386 165 395 5 5 76 -127 159 -293 l151 -301 0 -353 0
-354 -150 -307 -150 -306 2 -348 2 -347 6 345 5 345 153 309 152 309 0 354 0
353 -160 320 -160 320 0 340 c0 220 -4 340 -10 340 -6 0 -10 -118 -10 -335 l0
-336 -106 -262 c-59 -144 -114 -279 -122 -300 -8 -21 -19 -34 -23 -30 -7 8
-33 66 -188 421 l-71 163 0 340 c0 264 -3 339 -12 339 -10 0 -13 -75 -14 -343z"/>
<path d="M6575 3423 c-56 -15 -105 -80 -105 -138 0 -39 36 -99 73 -120 41 -24
113 -24 154 0 37 21 73 81 73 120 0 39 -28 92 -60 115 -29 21 -100 33 -135 23z"/>
<path d="M6540 2978 c-70 -48 -88 -131 -45 -203 24 -43 79 -75 125 -75 11 0
38 7 60 16 83 34 115 147 62 222 -45 62 -141 81 -202 40z"/>
<path d="M3556 2833 c-3 -3 -6 -42 -6 -85 0 -63 3 -78 15 -78 12 0 15 15 15
79 0 74 -7 100 -24 84z"/>
<path d="M4106 2833 c-3 -3 -6 -42 -6 -85 0 -63 3 -78 15 -78 12 0 15 15 15
79 0 74 -7 100 -24 84z"/>
<path d="M5970 2755 c0 -50 4 -85 10 -85 6 0 10 35 10 85 0 50 -4 85 -10 85
-6 0 -10 -35 -10 -85z"/>
<path d="M7330 2755 c0 -50 4 -85 10 -85 6 0 10 35 10 85 0 50 -4 85 -10 85
-6 0 -10 -35 -10 -85z"/>
<path d="M175 2821 c-3 -5 5 -11 17 -13 21 -3 23 -9 26 -70 2 -38 7 -68 12
-68 5 0 10 30 12 68 3 61 5 67 26 70 40 6 12 22 -38 22 -27 0 -51 -4 -55 -9z"/>
<path d="M1445 2820 c-3 -5 3 -10 14 -10 19 0 21 -6 21 -70 0 -56 3 -70 15
-70 12 0 15 14 15 70 0 68 1 70 26 70 14 0 23 4 19 10 -3 6 -28 10 -55 10 -27
0 -52 -4 -55 -10z"/>
<path d="M2055 2821 c-3 -5 5 -11 17 -13 21 -3 23 -9 26 -70 2 -38 7 -68 12
-68 5 0 10 30 12 68 3 61 5 67 26 70 40 6 12 22 -38 22 -27 0 -51 -4 -55 -9z"/>
<path d="M3347 2823 c-11 -10 -8 -153 2 -153 6 0 11 15 13 32 2 28 8 34 33 39
l30 6 -30 4 c-24 3 -30 9 -30 29 0 20 6 26 28 28 15 2 25 8 22 13 -7 10 -58
12 -68 2z"/>
<path d="M3897 2823 c-11 -10 -8 -153 2 -153 6 0 11 15 13 32 2 28 8 34 33 39
l30 6 -30 4 c-24 3 -30 9 -30 29 0 21 5 26 33 28 18 2 30 8 27 13 -7 10 -68
12 -78 2z"/>
<path d="M5215 2820 c-3 -5 3 -10 14 -10 19 0 21 -6 21 -70 0 -56 3 -70 15
-70 12 0 15 14 15 70 0 64 2 70 21 70 11 0 17 5 14 10 -3 6 -26 10 -50 10 -24
0 -47 -4 -50 -10z"/>
<path d="M5757 2823 c-4 -3 -7 -39 -7 -80 0 -58 3 -73 15 -73 10 0 15 11 15
35 0 31 3 35 28 36 l27 1 -25 7 c-18 5 -26 15 -28 34 -3 24 0 27 28 27 18 0
29 4 25 10 -7 11 -68 14 -78 3z"/>
<path d="M7123 2823 c-9 -3 -13 -29 -13 -79 0 -59 3 -74 15 -74 10 0 15 11 15
35 0 33 2 35 33 36 l32 1 -30 7 c-23 5 -31 12 -33 34 -3 25 0 27 30 27 25 0
29 3 18 10 -16 10 -47 12 -67 3z"/>
<path d="M313 2782 c-21 -3 -23 -9 -23 -58 0 -30 5 -54 10 -54 6 0 10 18 10
41 0 32 4 42 20 46 37 10 22 32 -17 25z"/>
<path d="M512 2774 c-25 -17 -31 -71 -10 -92 15 -15 78 -16 78 -1 0 6 -8 9
-19 6 -20 -5 -51 9 -51 23 0 6 18 10 40 10 33 0 40 3 40 19 0 17 -33 51 -50
51 -3 0 -16 -7 -28 -16z m46 -22 c2 -7 -7 -12 -23 -12 -24 0 -26 2 -15 15 14
17 31 16 38 -3z"/>
<path d="M1578 2782 c-27 -3 -28 -6 -28 -58 0 -61 17 -74 22 -16 2 27 9 40 26
47 38 17 26 33 -20 27z"/>
<path d="M1782 2774 c-25 -17 -31 -71 -10 -92 15 -15 78 -16 78 -1 0 6 -8 9
-19 6 -20 -5 -51 9 -51 23 0 6 18 10 40 10 33 0 40 3 40 19 0 17 -33 51 -50
51 -3 0 -16 -7 -28 -16z m46 -22 c2 -7 -7 -12 -23 -12 -24 0 -26 2 -15 15 14
17 31 16 38 -3z"/>
<path d="M2193 2783 c-21 -4 -23 -10 -23 -59 0 -30 5 -54 10 -54 6 0 10 18 10
41 0 32 4 42 20 46 18 5 30 35 13 32 -5 -1 -18 -4 -30 -6z"/>
<path d="M2400 2777 c-28 -14 -40 -68 -19 -93 13 -16 75 -19 84 -4 4 6 -5 10
-22 8 -16 -1 -34 1 -41 6 -24 14 -11 26 29 26 36 0 40 3 37 21 -5 34 -38 51
-68 36z m40 -22 c11 -13 8 -15 -20 -15 -28 0 -31 2 -20 15 7 8 16 15 20 15 4
0 13 -7 20 -15z"/>
<path d="M3458 2783 c-28 -7 -21 -22 8 -20 39 3 40 -17 2 -28 -26 -8 -33 -15
-33 -35 0 -23 4 -25 43 -26 l42 -2 0 49 c0 38 -4 51 -19 59 -11 5 -21 9 -23 9
-2 -1 -11 -3 -20 -6z m42 -72 c0 -13 -26 -32 -33 -24 -14 13 -6 33 13 33 11 0
20 -4 20 -9z"/>
<path d="M3618 2779 c-25 -14 -22 -34 9 -57 29 -21 25 -43 -7 -35 -11 3 -20 0
-20 -6 0 -16 55 -14 69 3 15 18 5 41 -25 55 -28 13 -23 35 7 26 23 -8 26 10 3
19 -19 7 -15 8 -36 -5z"/>
<path d="M3723 2779 c-27 -10 -39 -52 -24 -85 8 -19 18 -24 45 -24 19 0 38 5
42 12 5 8 0 9 -15 5 -29 -7 -51 1 -51 19 0 9 12 14 35 14 27 0 35 4 35 18 0
36 -31 55 -67 41z m31 -15 c25 -9 19 -24 -9 -24 -24 0 -32 10 -18 23 8 8 8 8
27 1z"/>
<path d="M4005 2775 c-19 -15 -19 -15 9 -13 40 4 43 -15 5 -29 -24 -9 -30 -17
-27 -35 2 -19 10 -24 41 -26 l37 -3 0 55 c0 31 -4 56 -9 56 -5 0 -15 2 -23 5
-7 3 -22 -1 -33 -10z m45 -70 c0 -8 -9 -15 -20 -15 -20 0 -26 11 -13 23 12 13
33 7 33 -8z"/>
<path d="M4178 2783 c-31 -7 -29 -33 4 -64 32 -29 29 -34 -17 -29 -15 1 -17
-1 -9 -10 6 -6 24 -10 40 -8 40 4 46 43 10 60 -31 14 -36 43 -6 35 11 -3 20
-2 20 3 0 11 -21 17 -42 13z"/>
<path d="M4269 2771 c-24 -19 -28 -63 -9 -86 14 -17 80 -20 80 -4 0 6 -8 9
-19 6 -20 -5 -51 9 -51 23 0 6 15 10 34 10 40 0 51 12 37 39 -15 27 -47 32
-72 12z m49 -19 c2 -7 -7 -12 -22 -12 -27 0 -35 15 -13 23 17 7 30 3 35 -11z"/>
<path d="M5343 2783 c-21 -4 -23 -10 -23 -59 0 -61 17 -74 22 -16 2 27 9 40
26 47 38 17 20 36 -25 28z"/>
<path d="M5553 2779 c-27 -10 -39 -52 -24 -85 8 -19 18 -24 45 -24 19 0 38 5
42 12 5 8 0 9 -15 5 -29 -7 -51 1 -51 19 0 9 12 14 36 14 32 0 35 2 32 26 -3
31 -32 45 -65 33z m45 -26 c2 -8 -6 -13 -22 -13 -25 0 -33 10 -19 24 10 10 36
3 41 -11z"/>
<path d="M5864 2774 c-18 -15 -18 -15 5 -10 14 3 31 0 39 -6 11 -9 7 -14 -20
-22 -26 -9 -33 -17 -33 -36 0 -22 5 -25 43 -28 l42 -3 0 45 c0 67 -34 94 -76
60z m47 -69 c0 -5 -9 -11 -21 -13 -20 -3 -27 8 -13 22 10 9 34 3 34 -9z"/>
<path d="M6038 2779 c-26 -15 -22 -48 7 -61 41 -19 31 -33 -20 -28 -15 1 -17
-1 -9 -10 6 -6 24 -10 40 -8 40 4 46 43 9 60 -30 13 -28 34 4 31 24 -3 28 12
5 21 -19 7 -15 8 -36 -5z"/>
<path d="M6132 2774 c-25 -17 -31 -71 -10 -92 15 -15 78 -16 78 -1 0 6 -8 9
-19 6 -20 -5 -51 9 -51 23 0 6 18 10 40 10 33 0 40 3 40 19 0 17 -33 51 -50
51 -3 0 -16 -7 -28 -16z m48 -19 c11 -13 8 -15 -20 -15 -28 0 -31 2 -20 15 7
8 16 15 20 15 4 0 13 -7 20 -15z"/>
<path d="M7224 2774 c-18 -15 -18 -15 5 -10 14 3 31 0 39 -6 11 -9 7 -14 -20
-22 -26 -9 -33 -17 -33 -36 0 -22 5 -25 43 -28 l42 -3 0 51 c0 45 -3 52 -26
60 -31 12 -27 13 -50 -6z m47 -69 c0 -5 -9 -11 -21 -13 -20 -3 -27 8 -13 22
10 9 34 3 34 -9z"/>
<path d="M7398 2779 c-26 -15 -22 -48 7 -61 41 -19 31 -33 -20 -28 -15 1 -17
-1 -9 -10 6 -6 24 -10 40 -8 40 4 46 43 9 60 -30 13 -28 34 4 31 24 -3 28 12
5 21 -19 7 -15 8 -36 -5z"/>
<path d="M7492 2774 c-25 -17 -31 -71 -10 -92 15 -15 78 -16 78 -1 0 6 -8 9
-19 6 -20 -5 -51 9 -51 23 0 6 18 10 40 10 33 0 40 3 40 19 0 17 -33 51 -50
51 -3 0 -16 -7 -28 -16z m48 -19 c11 -13 8 -15 -20 -15 -28 0 -31 2 -20 15 7
8 16 15 20 15 4 0 13 -7 20 -15z"/>
<path d="M372 2728 l3 -53 43 -1 42 -2 0 54 c0 64 -17 73 -22 12 -2 -35 -7
-43 -23 -43 -16 0 -21 8 -23 43 -2 23 -8 42 -13 42 -6 0 -9 -22 -7 -52z"/>
<path d="M581 2469 l-151 -310 0 -347 0 -347 155 -332 155 -332 0 -330 c0
-214 4 -331 10 -331 6 0 10 117 10 332 l0 331 -155 333 -155 334 0 345 0 345
66 133 c135 269 232 477 225 482 -5 2 -76 -135 -160 -306z"/>
<path d="M1642 2728 l3 -53 43 -1 42 -2 0 54 c0 64 -17 73 -22 12 -2 -35 -7
-43 -23 -43 -16 0 -21 8 -23 43 -2 23 -8 42 -13 42 -6 0 -9 -22 -7 -52z"/>
<path d="M2252 2728 l3 -53 43 -1 42 -2 0 54 c0 64 -17 73 -22 12 -2 -35 -7
-43 -23 -43 -16 0 -21 8 -23 43 -2 23 -8 42 -13 42 -6 0 -9 -22 -7 -52z"/>
<path d="M5412 2728 l3 -53 43 -1 42 -2 0 54 c0 64 -17 73 -22 12 -2 -35 -7
-43 -23 -43 -16 0 -21 8 -23 43 -2 23 -8 42 -13 42 -6 0 -9 -22 -7 -52z"/>
<path d="M1030 1800 c0 -227 4 -350 10 -350 6 0 10 123 10 350 0 227 -4 350
-10 350 -6 0 -10 -123 -10 -350z"/>
<path d="M2880 1800 c0 -227 4 -350 10 -350 6 0 10 123 10 350 0 227 -4 350
-10 350 -6 0 -10 -123 -10 -350z"/>
<path d="M950 864 c-60 -51 -76 -122 -44 -190 24 -51 68 -78 126 -78 144 0
195 202 70 277 -46 26 -114 23 -152 -9z"/>
<path d="M2820 868 c-21 -15 -42 -41 -54 -70 -17 -41 -18 -53 -7 -87 6 -22 23
-54 37 -70 102 -122 294 13 230 162 -23 54 -59 80 -118 85 -44 3 -59 0 -88
-20z"/>
<path d="M4695 836 c-100 -44 -121 -164 -40 -235 41 -36 81 -46 132 -32 126
34 140 207 20 261 -49 23 -71 24 -112 6z"/>
<path d="M953 429 c-31 -15 -48 -33 -64 -65 -27 -57 -20 -101 24 -148 77 -81
204 -61 248 40 24 54 14 106 -28 146 -54 52 -113 60 -180 27z"/>
<path d="M2820 433 c-139 -72 -86 -265 72 -265 56 0 89 19 126 72 77 114 -71
259 -198 193z"/>
<path d="M4695 413 c-40 -10 -84 -53 -96 -92 -29 -98 37 -183 140 -183 187 0
205 258 19 276 -23 3 -52 2 -63 -1z"/>
</g>
</svg>
