<?xml version="1.0" standalone="no"?>
<!DOCTYPE svg PUBLIC "-//W3C//DTD SVG 20010904//EN"
 "http://www.w3.org/TR/2001/REC-SVG-20010904/DTD/svg10.dtd">
<svg version="1.0" xmlns="http://www.w3.org/2000/svg"
 width="829.000000pt" height="1125.000000pt" viewBox="0 0 829.000000 1125.000000"
 preserveAspectRatio="xMidYMid meet">

<g transform="translate(0.000000,1125.000000) scale(0.100000,-0.100000)"
fill="#000000" stroke="none">
<path d="M712 10654 l-2 -332 -150 -307 -150 -307 0 -349 0 -349 155 -310 155
-310 0 -336 c0 -221 3 -333 10 -329 15 10 13 658 -2 673 -7 7 -9 12 -5 12 4 0
-60 135 -143 300 l-150 300 0 349 0 350 145 298 145 298 -3 340 -2 340 -3
-331z"/>
<path d="M923 10960 c-111 -67 -84 -227 43 -254 42 -9 109 18 135 56 84 117
-56 273 -178 198z"/>
<path d="M1262 10652 l-2 -333 145 -312 145 -313 0 -348 0 -349 -145 -298
-145 -299 2 -342 2 -343 6 340 5 340 148 303 147 302 0 345 0 345 -150 324
-150 324 -3 323 -2 324 -3 -333z"/>
<path d="M2520 10647 l0 -333 -150 -308 -150 -308 0 -339 0 -339 155 -310 155
-310 0 -334 c0 -223 4 -337 10 -341 8 -5 10 100 8 342 l-3 348 -152 302 -153
303 0 340 0 340 150 309 150 310 0 330 c0 214 -4 331 -10 331 -6 0 -10 -118
-10 -333z"/>
<path d="M3070 10653 l0 -328 26 -55 c14 -30 82 -176 150 -323 l124 -268 0
-334 0 -335 -142 -295 c-79 -162 -146 -294 -149 -295 -3 0 -67 140 -143 311
l-137 311 1 321 c0 177 -1 327 -2 332 -1 6 -5 -150 -8 -345 -3 -253 -2 -359 6
-370 6 -8 66 -141 134 -295 67 -154 126 -284 131 -289 5 -6 9 -160 9 -344 0
-219 3 -331 10 -327 6 4 10 128 10 339 l0 333 145 297 145 297 0 353 0 353
-145 314 -145 313 0 328 c0 212 -4 328 -10 328 -6 0 -10 -116 -10 -327z"/>
<path d="M4320 10651 l0 -330 -59 -123 c-32 -68 -100 -208 -150 -311 l-91
-188 0 -339 0 -340 155 -310 155 -310 0 -334 c0 -213 4 -337 10 -341 7 -4 10
106 10 323 l0 329 124 307 125 306 -2 353 -1 352 -3 -330 -3 -330 -122 -302
c-67 -167 -125 -303 -129 -303 -4 0 -73 133 -153 295 l-146 296 0 341 0 342
150 308 150 308 0 325 c0 205 -4 326 -10 330 -7 4 -10 -106 -10 -324z"/>
<path d="M4870 10652 l0 -329 150 -322 150 -322 0 -333 0 -333 -126 -259 c-69
-143 -137 -282 -150 -311 -24 -51 -24 -54 -24 -388 0 -222 3 -334 10 -330 6 4
10 128 10 340 l0 333 145 297 145 298 0 351 0 352 -145 313 -145 313 0 329 c0
213 -4 329 -10 329 -6 0 -10 -116 -10 -328z"/>
<path d="M6150 10653 l0 -331 -150 -309 -150 -308 0 -343 0 -344 155 -315 155
-315 0 -334 c0 -216 4 -334 10 -334 6 0 10 118 11 333 l0 332 118 290 c64 160
121 290 126 290 5 0 64 -126 132 -279 l123 -279 0 -344 c0 -213 4 -343 10
-343 6 0 10 132 12 343 l3 342 148 301 147 301 0 339 0 339 -26 55 c-14 30
-82 176 -150 323 l-124 269 0 324 c0 209 -4 324 -10 324 -6 0 -10 -115 -10
-324 l0 -324 150 -323 150 -323 0 -341 0 -342 -137 -282 c-75 -154 -140 -281
-144 -281 -3 0 -44 84 -89 188 -46 103 -105 236 -131 295 l-49 109 0 334 c0
221 -3 333 -10 329 -6 -4 -10 -129 -10 -343 l0 -337 -117 -292 c-65 -161 -121
-293 -125 -293 -5 0 -73 130 -153 290 l-145 290 0 349 0 349 145 296 145 297
0 336 c1 184 -1 338 -4 341 -4 3 -6 -144 -6 -325z"/>
<path d="M4565 10929 c-91 -25 -128 -133 -73 -212 75 -106 248 -51 248 79 0
92 -87 158 -175 133z"/>
<path d="M6377 10926 c-46 -17 -64 -32 -83 -67 -32 -63 -7 -142 55 -177 70
-40 154 -20 198 47 71 106 -46 241 -170 197z"/>
<path d="M2757 10903 c-38 -6 -95 -65 -103 -108 -9 -49 1 -80 39 -121 104
-114 286 13 219 152 -28 57 -86 86 -155 77z"/>
<path d="M908 10545 c-62 -34 -87 -129 -48 -192 54 -88 194 -83 250 9 37 62
15 137 -52 178 -39 24 -111 26 -150 5z"/>
<path d="M4555 10513 c-86 -22 -131 -135 -85 -211 76 -125 270 -73 270 73 0
93 -92 161 -185 138z"/>
<path d="M6360 10502 c-47 -23 -80 -75 -80 -124 0 -159 198 -206 261 -62 32
72 2 155 -68 188 -43 21 -70 20 -113 -2z"/>
<path d="M2725 10476 c-54 -23 -85 -70 -85 -128 0 -45 4 -54 38 -88 48 -48 95
-59 157 -35 116 44 125 186 15 243 -50 25 -81 27 -125 8z"/>
<path d="M970 9360 c0 -220 4 -340 10 -340 6 0 10 120 10 340 0 220 -4 340
-10 340 -6 0 -10 -120 -10 -340z"/>
<path d="M95 8651 c-3 -5 5 -11 17 -13 21 -3 23 -9 26 -70 4 -90 22 -88 22 2
0 68 1 70 26 70 14 0 23 4 19 10 -8 13 -102 13 -110 1z"/>
<path d="M203 8604 c-8 -21 2 -99 12 -99 6 0 12 20 15 44 4 32 10 46 25 52 23
9 20 11 -19 13 -15 1 -30 -3 -33 -10z"/>
<path d="M290 8566 c0 -31 3 -57 8 -57 4 -1 24 -3 45 -4 l37 -2 0 53 c0 29 -4
56 -10 59 -6 4 -10 -9 -10 -33 0 -40 -20 -69 -40 -57 -5 3 -10 24 -10 45 0 21
-4 42 -10 45 -6 4 -10 -15 -10 -49z"/>
<path d="M414 8594 c-32 -47 6 -104 61 -90 32 8 25 20 -13 21 -17 0 -28 6 -30
18 -3 14 4 17 32 17 40 0 47 17 20 44 -23 23 -51 19 -70 -10z m64 -11 c2 -8
-6 -13 -22 -13 -25 0 -33 10 -19 24 10 10 36 3 41 -11z"/>
<path d="M3980 8536 c0 -51 4 -86 10 -86 6 0 10 33 10 79 0 44 -4 83 -10 86
-6 4 -10 -25 -10 -79z"/>
<path d="M5780 8536 c0 -51 4 -86 10 -86 6 0 10 33 10 79 0 44 -4 83 -10 86
-6 4 -10 -25 -10 -79z"/>
<path d="M3470 8531 c0 -44 5 -83 10 -86 6 -4 10 25 10 79 0 51 -4 86 -10 86
-6 0 -10 -33 -10 -79z"/>
<path d="M7100 8525 c0 -55 4 -84 10 -80 6 3 10 39 10 80 0 41 -4 77 -10 80
-6 4 -10 -25 -10 -80z"/>
<path d="M1460 8591 c0 -5 10 -11 23 -13 20 -3 22 -9 25 -71 4 -86 22 -79 22
9 0 57 2 64 20 64 11 0 20 5 20 10 0 6 -25 10 -55 10 -30 0 -55 -4 -55 -9z"/>
<path d="M2000 8590 c0 -5 9 -10 20 -10 18 0 20 -7 20 -70 0 -90 18 -92 22 -2
3 61 5 67 26 70 12 2 20 8 17 13 -8 12 -105 12 -105 -1z"/>
<path d="M3270 8519 c0 -51 4 -78 10 -74 6 3 10 19 10 36 0 24 4 29 25 29 14
0 25 5 25 10 0 6 -11 10 -25 10 -20 0 -25 5 -25 25 0 21 5 25 31 25 17 0 28 4
24 10 -3 6 -22 10 -41 10 l-34 0 0 -81z"/>
<path d="M3770 8525 c0 -43 4 -75 10 -75 6 0 10 16 10 35 0 32 2 35 31 35 17
0 28 4 24 10 -3 6 -17 10 -31 10 -21 0 -25 4 -22 22 2 16 12 25 33 29 27 6 26
7 -12 8 l-43 1 0 -75z"/>
<path d="M5080 8590 c0 -5 9 -10 20 -10 17 0 19 -8 22 -65 4 -86 22 -90 23 -5
0 60 2 65 23 68 44 7 21 22 -33 22 -30 0 -55 -4 -55 -10z"/>
<path d="M5570 8525 c0 -74 16 -105 22 -42 2 27 8 33 31 35 33 4 26 22 -9 22
-21 0 -25 4 -22 22 2 16 12 25 33 29 27 6 26 7 -12 8 l-43 1 0 -75z"/>
<path d="M6897 8593 c-11 -11 -8 -153 3 -153 6 0 10 16 10 35 0 32 2 35 30 35
17 0 30 5 30 10 0 6 -13 10 -30 10 -25 0 -30 4 -30 25 0 21 5 25 31 25 17 0
28 4 24 10 -7 11 -58 14 -68 3z"/>
<path d="M3874 8555 c-18 -15 -18 -15 10 -13 16 2 31 -2 33 -9 3 -8 -4 -13
-15 -13 -25 0 -45 -23 -40 -47 2 -14 13 -18 46 -19 l42 -2 0 43 c0 65 -34 92
-76 60z m46 -70 c0 -8 -9 -15 -20 -15 -20 0 -26 11 -13 23 12 13 33 7 33 -8z"/>
<path d="M4036 8554 c-22 -21 -20 -31 9 -50 32 -21 32 -34 -1 -34 -14 0 -23
-4 -19 -10 9 -15 51 -12 64 4 15 17 5 44 -20 51 -26 9 -25 39 1 32 24 -6 27 8
4 17 -21 8 -20 8 -38 -10z"/>
<path d="M4130 8550 c-24 -24 -26 -63 -4 -84 17 -18 74 -22 74 -6 0 6 -13 10
-30 10 -20 0 -30 5 -30 15 0 10 11 15 35 15 28 0 35 4 35 19 0 18 -34 51 -52
51 -5 0 -17 -9 -28 -20z m50 -15 c11 -13 8 -15 -14 -15 -25 0 -33 10 -19 23
10 11 19 8 33 -8z"/>
<path d="M5683 8563 c-23 -9 -14 -22 13 -20 15 1 29 -4 31 -10 3 -8 -3 -13
-14 -13 -32 0 -56 -24 -49 -48 6 -18 14 -22 47 -20 l39 1 0 48 c0 38 -4 51
-19 59 -21 11 -29 11 -48 3z m47 -72 c0 -6 -5 -13 -10 -16 -15 -9 -43 3 -35
15 8 13 45 13 45 1z"/>
<path d="M5848 8563 c-29 -7 -23 -52 8 -63 30 -12 23 -30 -12 -30 -14 0 -22
-4 -19 -10 9 -14 48 -13 63 2 19 19 14 37 -13 50 -31 14 -34 43 -4 35 12 -3
19 -1 16 6 -4 13 -16 16 -39 10z"/>
<path d="M5944 8559 c-53 -19 -31 -109 26 -109 40 0 47 18 8 22 -46 4 -49 28
-3 28 33 0 36 2 33 26 -3 31 -32 45 -64 33z m44 -26 c2 -8 -6 -13 -22 -13 -25
0 -33 10 -19 24 10 10 36 3 41 -11z"/>
<path d="M1575 8551 c-9 -8 -5 -100 4 -106 6 -3 11 14 13 37 2 34 8 45 28 55
14 7 23 13 20 14 -14 4 -61 4 -65 0z"/>
<path d="M1656 8553 c-10 -10 -7 -72 4 -94 9 -15 19 -19 48 -16 l37 4 0 52 c0
60 -19 74 -23 16 -6 -67 -42 -71 -42 -5 0 37 -10 56 -24 43z"/>
<path d="M1787 8542 c-22 -24 -22 -66 -1 -87 18 -18 65 -17 71 2 3 7 -3 9 -16
6 -23 -6 -54 14 -45 28 3 5 21 9 40 9 38 0 45 18 18 44 -21 21 -47 20 -67 -2z
m53 -17 c0 -8 -9 -15 -20 -15 -11 0 -20 7 -20 15 0 8 9 15 20 15 11 0 20 -7
20 -15z"/>
<path d="M2110 8498 c0 -32 4 -58 10 -58 6 0 10 18 10 40 0 29 5 43 20 52 28
18 25 27 -10 26 -30 -1 -30 -1 -30 -60z"/>
<path d="M2190 8511 c0 -55 11 -68 58 -68 l32 0 0 59 c0 32 -4 58 -10 58 -5 0
-10 -17 -10 -39 0 -39 -20 -68 -40 -56 -5 3 -10 26 -10 51 0 24 -4 44 -10 44
-5 0 -10 -22 -10 -49z"/>
<path d="M2322 8548 c-17 -17 -15 -83 2 -97 17 -14 68 -11 64 3 -2 6 -14 10
-28 10 -15 1 -26 8 -28 19 -3 14 4 17 32 17 28 0 36 4 36 18 0 24 -19 42 -45
42 -12 0 -26 -5 -33 -12z m56 -25 c2 -8 -6 -13 -22 -13 -25 0 -33 10 -19 24
10 10 36 3 41 -11z"/>
<path d="M3367 8553 c-14 -13 -6 -22 19 -20 15 1 29 -4 31 -10 3 -8 -5 -13
-21 -13 -31 0 -53 -34 -36 -55 7 -8 27 -14 46 -13 34 1 34 2 34 48 0 25 -5 51
-12 58 -13 13 -50 16 -61 5z m51 -75 c-7 -19 -38 -22 -38 -4 0 10 9 16 21 16
12 0 19 -5 17 -12z"/>
<path d="M3527 8553 c-15 -14 -6 -43 18 -59 28 -18 23 -39 -7 -31 -12 4 -18 1
-15 -6 6 -19 49 -14 61 6 9 15 6 22 -16 41 -35 27 -35 36 -2 36 14 0 23 4 19
10 -7 11 -48 14 -58 3z"/>
<path d="M3628 8549 c-27 -15 -25 -85 3 -99 24 -13 61 -10 66 7 3 7 -8 11 -29
10 -46 -3 -46 27 0 31 22 2 32 8 32 21 0 36 -37 51 -72 30z m50 -26 c2 -8 -6
-13 -22 -13 -25 0 -33 10 -19 24 10 10 36 3 41 -11z"/>
<path d="M5190 8498 c0 -32 4 -58 10 -58 6 0 10 18 10 40 0 29 5 43 20 52 28
18 25 27 -10 26 -30 -1 -30 -1 -30 -60z"/>
<path d="M5270 8506 c0 -59 8 -67 60 -62 22 2 25 8 28 51 2 26 -2 53 -7 58 -8
8 -11 -1 -11 -30 0 -41 -20 -70 -40 -58 -5 3 -10 24 -10 45 0 21 -4 42 -10 45
-6 4 -10 -15 -10 -49z"/>
<path d="M5394 8534 c-32 -47 6 -104 61 -90 32 8 25 20 -13 21 -17 0 -28 6
-30 18 -3 14 4 17 32 17 40 0 47 17 20 44 -23 23 -51 19 -70 -10z m64 -11 c2
-8 -6 -13 -22 -13 -25 0 -33 10 -19 24 10 10 36 3 41 -11z"/>
<path d="M6993 8553 c-25 -10 -12 -22 17 -16 23 4 30 2 30 -9 0 -9 -13 -18
-31 -22 -26 -5 -30 -10 -27 -33 3 -25 7 -28 43 -28 37 1 40 3 43 31 5 47 -13
84 -40 83 -13 0 -29 -3 -35 -6z m45 -75 c-3 -7 -11 -13 -18 -13 -7 0 -15 6
-17 13 -3 7 4 12 17 12 13 0 20 -5 18 -12z"/>
<path d="M7152 8548 c-19 -19 -14 -37 13 -50 14 -6 25 -18 25 -26 0 -10 -8
-13 -25 -10 -14 3 -25 2 -25 -3 0 -14 21 -21 46 -15 34 9 33 49 -2 64 -28 13
-24 32 7 32 11 0 17 5 14 10 -8 14 -38 13 -53 -2z"/>
<path d="M7246 8544 c-21 -20 -20 -68 0 -89 18 -18 65 -17 71 2 3 7 -3 9 -16
6 -23 -6 -54 14 -45 28 3 5 21 9 40 9 23 0 34 5 34 14 0 20 -28 46 -50 46 -10
0 -26 -7 -34 -16z m54 -19 c0 -8 -9 -15 -20 -15 -11 0 -20 7 -20 15 0 8 9 15
20 15 11 0 20 -7 20 -15z"/>
<path d="M740 6900 l0 -331 -150 -306 -150 -306 0 -344 0 -343 155 -310 155
-310 0 -334 c0 -223 4 -337 10 -341 8 -5 10 100 8 342 l-3 348 -152 301 -153
301 0 345 0 346 150 307 150 307 0 329 c0 213 -4 329 -10 329 -6 0 -10 -117
-10 -330z"/>
<path d="M1290 6906 l0 -325 150 -322 150 -322 0 -341 0 -340 -150 -308 -150
-308 0 -335 c0 -222 3 -334 10 -330 6 4 10 128 10 338 l0 332 106 215 c58 118
126 257 150 308 l44 94 0 336 0 336 -150 322 -150 322 0 326 c0 211 -4 326
-10 326 -6 0 -10 -115 -10 -324z"/>
<path d="M2560 6901 l0 -329 -44 -93 c-24 -52 -91 -191 -150 -309 l-106 -215
0 -342 0 -343 155 -310 155 -310 0 -334 c0 -223 4 -337 10 -341 8 -5 10 100 8
342 l-3 348 -152 302 -153 303 0 343 0 344 150 306 150 306 0 331 c0 213 -4
330 -10 330 -6 0 -10 -116 -10 -329z"/>
<path d="M3110 6906 l0 -323 150 -322 150 -322 0 -343 0 -343 -143 -293 c-107
-220 -145 -289 -153 -279 -6 8 -68 143 -137 302 l-127 287 0 340 c0 214 -4
340 -10 340 -15 0 -18 -701 -4 -720 7 -8 71 -148 143 -311 l131 -296 0 -327
c0 -216 3 -325 10 -321 6 4 10 126 10 334 l0 328 69 144 c38 79 105 218 150
308 l81 165 0 341 0 340 -150 323 -150 323 0 324 c0 210 -4 325 -10 325 -6 0
-10 -115 -10 -324z"/>
<path d="M4372 6905 l-2 -329 -150 -308 -150 -308 0 -350 0 -350 155 -310 155
-310 0 -336 c0 -221 3 -333 10 -329 6 4 10 126 10 332 l0 326 101 250 c55 138
111 274 124 303 23 52 24 59 25 409 0 238 -3 355 -10 355 -7 0 -10 -113 -10
-342 l0 -342 -116 -286 c-63 -157 -119 -289 -124 -294 -5 -5 -75 123 -159 293
l-151 301 0 330 0 330 74 153 c40 83 108 223 150 309 l76 158 -3 337 -2 338
-3 -330z"/>
<path d="M4920 6902 l0 -329 150 -321 150 -321 0 -334 0 -334 -150 -308 -150
-309 0 -338 c0 -224 3 -337 10 -333 6 4 10 128 10 340 l0 334 145 297 145 297
0 353 0 353 -34 73 c-19 40 -84 180 -145 312 l-111 239 0 328 c0 213 -4 329
-10 329 -6 0 -10 -116 -10 -328z"/>
<path d="M6200 6897 l0 -334 -150 -307 -150 -307 0 -340 0 -339 160 -320 160
-320 2 -332 2 -333 6 335 5 335 119 293 c66 160 123 292 127 292 3 0 63 -128
133 -285 l126 -285 0 -341 c0 -224 3 -338 10 -334 6 4 10 128 10 339 l0 332
148 305 147 304 -1 345 0 345 -147 314 -147 314 0 329 c0 212 -4 328 -10 328
-6 0 -10 -115 -10 -326 l0 -327 91 -196 c50 -108 118 -253 150 -322 l59 -125
0 -337 0 -336 -137 -285 c-76 -157 -142 -284 -147 -282 -5 1 -67 132 -138 291
l-128 289 0 338 c0 219 -4 338 -10 338 -6 0 -10 -119 -10 -336 l0 -337 -99
-246 c-133 -327 -143 -351 -150 -351 -3 0 -72 133 -154 295 l-147 295 0 339 0
338 79 164 c43 90 111 229 150 309 l71 145 0 332 c0 215 -4 333 -10 333 -6 0
-10 -118 -10 -333z"/>
<path d="M1012 5603 c1 -192 3 -307 5 -258 7 221 7 605 1 605 -5 0 -7 -156 -6
-347z"/>
<path d="M2454 5441 c-50 -30 -74 -68 -74 -116 0 -76 69 -145 145 -145 73 0
145 70 145 140 0 102 -129 174 -216 121z"/>
<path d="M3114 5434 c-125 -43 -123 -233 2 -274 71 -24 142 12 169 85 23 58
13 106 -28 151 -40 43 -89 57 -143 38z"/>
<path d="M4326 5435 c-45 -16 -63 -31 -82 -66 -30 -60 -8 -145 48 -179 52 -32
119 -27 162 10 45 40 62 90 47 139 -22 77 -103 121 -175 96z"/>
<path d="M4922 5439 c-44 -9 -90 -54 -104 -100 -16 -54 -3 -104 37 -143 91
-92 245 -27 245 102 0 97 -82 162 -178 141z"/>
<path d="M1252 5380 c-34 -21 -72 -87 -72 -125 0 -11 9 -39 20 -62 47 -105
189 -113 240 -13 67 132 -66 274 -188 200z"/>
<path d="M6143 5384 c-67 -33 -96 -118 -64 -188 62 -141 261 -99 261 55 0 108
-105 178 -197 133z"/>
<path d="M6692 5380 c-127 -77 -78 -270 69 -270 87 0 154 72 146 157 -11 105
-127 166 -215 113z"/>
<path d="M682 5380 c-37 -9 -77 -42 -98 -82 -60 -116 97 -239 214 -168 41 25
76 97 66 137 -20 81 -101 131 -182 113z"/>
<path d="M125 4900 c-4 -6 5 -10 19 -10 25 0 26 -2 26 -70 0 -40 4 -70 10 -70
6 0 10 30 10 70 0 68 1 70 26 70 14 0 23 4 19 10 -3 6 -28 10 -55 10 -27 0
-52 -4 -55 -10z"/>
<path d="M240 4807 c0 -36 4 -56 10 -52 6 3 10 24 10 47 0 31 4 41 20 45 31 8
24 22 -10 20 -30 -2 -30 -3 -30 -60z"/>
<path d="M320 4815 c0 -30 3 -56 8 -56 4 -1 24 -3 45 -4 l37 -2 0 58 c0 33 -4
59 -10 59 -5 0 -10 -17 -10 -39 0 -39 -20 -68 -40 -56 -5 3 -10 26 -10 51 0
24 -4 44 -10 44 -5 0 -10 -25 -10 -55z"/>
<path d="M450 4854 c-17 -20 -17 -68 0 -88 14 -18 47 -21 70 -6 15 10 13 11
-30 13 -15 1 -26 9 -28 20 -3 14 4 17 32 17 28 0 36 4 36 18 0 39 -55 57 -80
26z m58 -21 c2 -8 -6 -13 -22 -13 -25 0 -33 10 -19 24 10 10 36 3 41 -11z"/>
<path d="M4027 4863 c-11 -11 -8 -163 3 -163 6 0 10 35 10 85 0 85 -1 91 -13
78z"/>
<path d="M5837 4863 c-11 -11 -8 -163 3 -163 6 0 10 35 10 85 0 85 -1 91 -13
78z"/>
<path d="M3518 4779 c-3 -83 -2 -92 13 -83 12 7 11 151 0 159 -5 3 -11 -30
-13 -76z"/>
<path d="M3817 4853 c-11 -10 -8 -153 2 -153 6 0 11 15 13 33 2 27 8 33 31 35
33 4 26 22 -9 22 -21 0 -25 4 -22 23 2 16 11 23 31 25 15 2 25 8 22 13 -7 10
-58 12 -68 2z"/>
<path d="M5627 4853 c-4 -3 -7 -40 -7 -80 0 -55 3 -74 13 -71 6 3 13 19 15 36
3 25 8 31 30 34 24 4 25 5 7 12 -11 4 -25 9 -32 11 -22 7 -2 45 24 45 13 0 21
4 18 10 -7 11 -58 14 -68 3z"/>
<path d="M7152 4778 c4 -105 23 -107 23 -1 0 53 -4 78 -13 81 -10 3 -12 -15
-10 -80z"/>
<path d="M1500 4840 c0 -5 9 -10 20 -10 18 0 20 -7 20 -64 0 -88 18 -95 22 -9
3 62 5 68 26 71 44 7 21 22 -33 22 -30 0 -55 -4 -55 -10z"/>
<path d="M2035 4840 c-4 -6 5 -10 19 -10 25 0 26 -2 26 -70 0 -40 4 -70 10
-70 6 0 10 30 10 70 0 68 1 70 26 70 14 0 23 4 19 10 -3 6 -28 10 -55 10 -27
0 -52 -4 -55 -10z"/>
<path d="M3310 4770 c0 -47 4 -80 10 -80 6 0 10 16 10 35 0 32 2 35 31 35 17
0 28 4 24 10 -3 6 -17 10 -31 10 -19 0 -24 5 -24 25 0 21 5 25 30 25 17 0 30
5 30 10 0 6 -18 10 -40 10 l-40 0 0 -80z"/>
<path d="M5130 4840 c0 -5 9 -10 20 -10 17 0 19 -8 22 -65 2 -36 8 -65 13 -65
6 0 11 29 13 65 3 57 5 65 22 65 11 0 20 5 20 10 0 6 -25 10 -55 10 -30 0 -55
-4 -55 -10z"/>
<path d="M6950 4769 c0 -51 4 -78 10 -74 6 3 10 19 10 36 0 24 4 29 25 29 14
0 25 5 25 10 0 6 -11 10 -25 10 -20 0 -25 5 -25 25 0 21 5 25 31 25 17 0 28 4
24 10 -3 6 -22 10 -41 10 l-34 0 0 -81z"/>
<path d="M3923 4813 c-23 -9 -14 -22 13 -20 37 3 41 -19 6 -26 -59 -12 -47
-67 14 -65 34 1 34 2 34 49 0 38 -4 51 -19 59 -21 11 -29 11 -48 3z m45 -75
c-7 -19 -38 -22 -38 -4 0 10 9 16 21 16 12 0 19 -5 17 -12z"/>
<path d="M4088 4809 c-25 -14 -22 -36 7 -55 14 -9 25 -20 25 -25 0 -5 -11 -9
-25 -9 -14 0 -25 -5 -25 -11 0 -6 14 -9 33 -7 43 4 50 39 13 63 -29 19 -25 39
5 30 23 -8 26 10 3 19 -19 7 -15 8 -36 -5z"/>
<path d="M4182 4804 c-15 -10 -22 -25 -22 -48 0 -39 15 -56 51 -56 40 0 46 18
7 22 -46 4 -47 26 -2 30 45 4 53 19 25 47 -25 25 -30 26 -59 5z m46 -22 c2 -7
-7 -12 -23 -12 -24 0 -26 2 -15 15 14 17 31 16 38 -3z"/>
<path d="M5733 4813 c-23 -9 -14 -22 13 -20 37 3 41 -19 6 -26 -59 -12 -47
-67 14 -65 34 1 34 2 34 49 0 38 -4 51 -19 59 -21 11 -29 11 -48 3z m45 -75
c-7 -19 -38 -22 -38 -4 0 10 9 16 21 16 12 0 19 -5 17 -12z"/>
<path d="M5898 4809 c-26 -15 -22 -44 7 -57 14 -6 25 -16 25 -22 0 -5 -11 -10
-25 -10 -14 0 -25 -5 -25 -11 0 -6 14 -9 33 -7 43 4 50 39 13 63 -29 19 -26
35 7 35 18 0 19 2 7 10 -18 12 -21 12 -42 -1z"/>
<path d="M6000 4813 c-22 -9 -30 -24 -30 -58 0 -38 16 -55 51 -55 40 0 46 18
7 22 -46 4 -47 26 -1 30 32 2 37 6 35 23 -2 11 -11 26 -20 33 -17 13 -19 13
-42 5z m38 -30 c2 -8 -6 -13 -22 -13 -19 0 -24 4 -19 15 6 18 34 16 41 -2z"/>
<path d="M1610 4748 c0 -32 4 -58 10 -58 6 0 10 18 10 40 0 29 5 43 20 52 28
18 25 27 -10 26 -30 -1 -30 -1 -30 -60z"/>
<path d="M1690 4761 c0 -55 9 -66 57 -66 l33 0 0 58 c0 31 -4 57 -10 57 -5 0
-10 -17 -10 -39 0 -39 -20 -68 -40 -56 -5 3 -10 26 -10 51 0 24 -4 44 -10 44
-5 0 -10 -22 -10 -49z"/>
<path d="M1826 4794 c-24 -23 -21 -81 5 -94 26 -14 61 -9 67 9 3 10 0 12 -13
7 -24 -9 -55 2 -55 20 0 10 12 14 40 14 44 0 47 5 24 38 -18 26 -46 28 -68 6z
m52 -21 c2 -8 -6 -13 -22 -13 -25 0 -33 10 -19 24 10 10 36 3 41 -11z"/>
<path d="M2150 4748 c0 -32 4 -58 10 -58 6 0 10 18 10 40 0 29 5 43 20 52 28
18 25 27 -10 26 -30 -1 -30 -1 -30 -60z"/>
<path d="M2230 4761 c0 -55 11 -68 58 -68 l32 0 0 59 c0 32 -4 58 -10 58 -5 0
-10 -17 -10 -39 0 -39 -20 -68 -40 -56 -5 3 -10 26 -10 51 0 24 -4 44 -10 44
-5 0 -10 -22 -10 -49z"/>
<path d="M2363 4798 c-18 -24 -22 -48 -13 -73 12 -30 31 -39 65 -31 36 9 31
24 -7 22 -23 -1 -33 4 -36 17 -3 14 4 17 32 17 28 0 36 4 36 18 0 37 -55 58
-77 30z m55 -25 c2 -8 -6 -13 -22 -13 -25 0 -33 10 -19 24 10 10 36 3 41 -11z"/>
<path d="M3407 4803 c-15 -15 -5 -22 23 -16 23 4 30 2 30 -9 0 -9 -13 -18 -31
-22 -26 -5 -30 -10 -27 -33 3 -25 7 -28 43 -28 l39 1 -3 49 c-1 28 -5 53 -7
57 -6 10 -58 10 -67 1z m51 -75 c-3 -7 -11 -13 -18 -13 -7 0 -15 6 -17 13 -3
7 4 12 17 12 13 0 20 -5 18 -12z"/>
<path d="M3572 4798 c-19 -19 -14 -37 13 -50 35 -16 34 -42 -1 -34 -19 5 -25
3 -22 -6 7 -19 43 -21 61 -3 20 20 12 44 -20 56 -27 10 -22 29 8 29 11 0 17 5
14 10 -8 14 -38 13 -53 -2z"/>
<path d="M3667 4792 c-23 -25 -21 -65 2 -86 21 -19 62 -18 68 1 3 7 -3 9 -16
6 -23 -6 -54 14 -45 28 3 5 21 9 40 9 38 0 45 18 18 44 -21 21 -47 20 -67 -2z
m53 -17 c0 -8 -9 -15 -20 -15 -11 0 -20 7 -20 15 0 8 9 15 20 15 11 0 20 -7
20 -15z"/>
<path d="M5240 4748 c0 -32 4 -58 10 -58 6 0 10 18 10 40 0 29 5 43 20 52 28
18 25 27 -10 26 -30 -1 -30 -1 -30 -60z"/>
<path d="M5320 4761 c0 -55 11 -68 58 -68 l32 0 0 59 c0 32 -4 58 -10 58 -5 0
-10 -17 -10 -39 0 -39 -20 -68 -40 -56 -5 3 -10 26 -10 51 0 24 -4 44 -10 44
-5 0 -10 -22 -10 -49z"/>
<path d="M5450 4794 c-8 -8 -13 -28 -13 -44 0 -51 42 -76 83 -50 15 10 13 11
-30 13 -15 1 -26 9 -28 20 -3 14 4 17 32 17 28 0 36 4 36 18 0 39 -55 57 -80
26z m58 -21 c2 -8 -6 -13 -22 -13 -25 0 -33 10 -19 24 10 10 36 3 41 -11z"/>
<path d="M7047 4803 c-14 -13 -6 -22 19 -20 15 1 29 -4 31 -10 3 -8 -5 -13
-21 -13 -30 0 -48 -27 -35 -52 7 -13 20 -17 44 -15 l35 2 0 51 c0 38 -4 53
-16 58 -21 8 -49 8 -57 -1z m51 -75 c-7 -19 -38 -22 -38 -4 0 10 9 16 21 16
12 0 19 -5 17 -12z"/>
<path d="M7212 4798 c-18 -18 -14 -34 13 -52 28 -19 24 -41 -6 -33 -11 3 -19
1 -19 -3 0 -15 20 -22 46 -16 33 9 33 49 -1 64 -32 15 -32 32 1 32 14 0 23 4
19 10 -8 14 -38 13 -53 -2z"/>
<path d="M7306 4794 c-21 -20 -20 -68 0 -89 18 -18 65 -17 71 2 3 7 -3 9 -16
6 -23 -6 -54 14 -45 28 3 5 21 9 40 9 32 0 35 2 28 23 -12 39 -50 50 -78 21z
m52 -21 c2 -8 -5 -13 -17 -13 -12 0 -21 6 -21 16 0 18 31 15 38 -3z"/>
<path d="M720 3233 l0 -336 -150 -308 -150 -308 0 -355 0 -356 158 -313 157
-312 6 -345 5 -345 0 355 -1 355 -157 312 -158 313 0 335 0 335 155 319 155
319 0 336 c0 217 -4 336 -10 336 -6 0 -10 -119 -10 -337z"/>
<path d="M1280 3241 l0 -330 150 -322 150 -322 0 -357 0 -357 -147 -299 -148
-299 -3 -347 c-2 -236 1 -348 8 -348 7 0 10 112 10 340 l0 340 150 306 150
307 0 357 0 357 -150 321 -150 321 0 331 c0 213 -4 330 -10 330 -6 0 -10 -116
-10 -329z"/>
<path d="M2570 3232 l0 -338 -150 -306 -150 -307 0 -356 0 -355 156 -313 c87
-171 159 -307 161 -300 2 6 -65 148 -148 315 l-153 303 -2 340 -2 340 61 130
c33 72 102 215 154 319 l93 189 0 339 c0 219 -4 338 -10 338 -6 0 -10 -119
-10 -338z"/>
<path d="M3130 3241 l0 -328 153 -324 152 -324 0 -355 0 -355 -144 -292 c-79
-161 -148 -290 -154 -286 -5 3 -15 21 -23 39 -8 19 -68 156 -134 305 l-120
271 0 339 c0 219 -4 339 -10 339 -13 0 -14 -727 -1 -732 5 -2 62 -122 126
-268 65 -146 126 -283 136 -304 17 -37 19 -67 19 -373 0 -215 4 -333 10 -333
6 0 10 120 10 339 l0 339 150 307 150 307 0 358 0 357 -150 322 -150 321 0
330 c0 213 -4 330 -10 330 -6 0 -10 -116 -10 -329z"/>
<path d="M4410 3237 l0 -334 -155 -317 -155 -317 0 -344 0 -345 160 -320 160
-320 0 -340 c0 -220 4 -340 10 -340 6 0 10 118 10 334 l0 334 74 184 c41 101
97 239 125 308 28 68 49 130 47 137 -3 7 -1 15 4 18 14 8 13 695 0 695 -6 0
-10 -120 -10 -341 l0 -342 -122 -303 c-68 -167 -126 -304 -130 -304 -5 0 -75
135 -158 300 l-150 300 0 345 0 344 148 298 147 298 5 353 c3 193 2 352 -2
352 -5 0 -8 -150 -8 -333z"/>
<path d="M4970 3236 l0 -333 150 -323 150 -322 0 -348 0 -348 -147 -299 -148
-298 -3 -353 c-2 -242 1 -352 8 -347 6 4 10 122 10 344 l0 338 150 308 150
307 0 347 0 347 -81 175 c-45 96 -94 201 -109 234 -15 33 -46 100 -69 148
l-41 89 0 334 c0 216 -4 334 -10 334 -6 0 -10 -118 -10 -334z"/>
<path d="M6270 3231 l0 -338 -150 -308 -150 -307 0 -354 0 -354 160 -320 160
-320 0 -337 c0 -185 3 -333 7 -329 4 4 8 157 9 339 l0 332 112 275 c62 151
117 286 123 299 6 14 14 20 19 15 5 -5 64 -133 132 -284 l123 -275 3 -352 c2
-218 6 -353 12 -353 6 0 10 130 10 343 l0 343 150 308 150 308 0 348 0 349
-150 322 -150 322 0 334 c0 215 -4 333 -10 333 -6 0 -10 -118 -10 -333 l0
-333 150 -322 150 -323 0 -349 0 -350 -140 -286 c-76 -157 -143 -283 -149
-280 -5 3 -28 50 -51 103 -24 54 -83 187 -131 296 l-89 199 0 339 c0 219 -4
339 -10 339 -6 0 -10 -123 -10 -348 l0 -349 -119 -294 c-65 -161 -123 -295
-127 -296 -5 -2 -75 130 -157 292 l-147 295 0 354 0 354 150 307 150 308 0
338 c0 219 -4 339 -10 339 -6 0 -10 -120 -10 -339z"/>
<path d="M990 1925 c0 -223 4 -345 10 -345 6 0 10 122 10 345 0 223 -4 345
-10 345 -6 0 -10 -122 -10 -345z"/>
<path d="M3137 1746 c-48 -17 -62 -29 -81 -70 -33 -70 -7 -163 54 -199 44 -26
112 -22 150 9 64 55 78 127 35 199 -34 59 -96 82 -158 61z"/>
<path d="M4372 1750 c-96 -22 -135 -145 -71 -222 81 -99 233 -52 246 75 10 95
-79 169 -175 147z"/>
<path d="M6210 1692 c-38 -20 -80 -89 -80 -131 0 -14 9 -44 21 -67 26 -55 91
-90 147 -79 45 8 106 69 116 115 23 117 -103 217 -204 162z"/>
<path d="M6785 1696 c-99 -44 -121 -157 -46 -236 46 -49 94 -59 156 -35 56 21
87 63 93 126 10 110 -102 190 -203 145z"/>
<path d="M95 1200 c-4 -6 5 -10 19 -10 25 0 26 -2 26 -70 0 -40 4 -70 10 -70
6 0 10 30 10 70 0 68 1 70 25 70 14 0 25 5 25 10 0 6 -24 10 -54 10 -30 0 -58
-4 -61 -10z"/>
<path d="M210 1108 c0 -32 4 -58 10 -58 6 0 10 18 10 40 0 29 5 43 20 52 28
18 25 27 -10 26 -30 -1 -30 -1 -30 -60z"/>
<path d="M290 1121 c0 -57 14 -73 61 -67 34 3 34 4 34 55 0 59 -18 70 -23 14
-6 -69 -52 -62 -52 8 0 22 -4 39 -10 39 -5 0 -10 -22 -10 -49z"/>
<path d="M426 1154 c-20 -20 -20 -68 0 -88 17 -18 51 -21 74 -6 15 10 13 11
-30 13 -15 1 -26 9 -28 20 -3 14 4 17 32 17 38 0 43 8 26 41 -13 23 -53 25
-74 3z m59 -19 c0 -5 -10 -11 -22 -13 -16 -2 -23 2 -23 13 0 11 7 15 23 13 12
-2 22 -7 22 -13z"/>
<path d="M4060 1085 c0 -50 4 -85 10 -85 6 0 10 35 10 85 0 50 -4 85 -10 85
-6 0 -10 -35 -10 -85z"/>
<path d="M5900 1085 c0 -50 4 -85 10 -85 6 0 10 35 10 85 0 50 -4 85 -10 85
-6 0 -10 -35 -10 -85z"/>
<path d="M3540 1075 c0 -50 4 -85 10 -85 6 0 10 35 10 85 0 50 -4 85 -10 85
-6 0 -10 -35 -10 -85z"/>
<path d="M3847 1153 c-4 -3 -7 -39 -7 -80 0 -58 3 -73 15 -73 10 0 15 11 15
35 0 31 3 35 25 35 14 0 25 5 25 10 0 6 -11 10 -25 10 -20 0 -25 5 -25 25 0
21 5 25 31 25 17 0 28 4 24 10 -7 11 -68 14 -78 3z"/>
<path d="M5687 1153 c-4 -3 -7 -39 -7 -80 0 -58 3 -73 15 -73 10 0 15 11 15
35 0 31 3 35 25 35 14 0 25 5 25 10 0 6 -11 10 -25 10 -20 0 -25 5 -25 25 0
21 5 25 31 25 17 0 28 4 24 10 -7 11 -68 14 -78 3z"/>
<path d="M7240 1075 c0 -50 4 -85 10 -85 6 0 10 35 10 85 0 50 -4 85 -10 85
-6 0 -10 -35 -10 -85z"/>
<path d="M1490 1141 c0 -5 10 -11 23 -13 20 -3 22 -9 25 -70 4 -90 22 -88 22
2 0 68 1 70 26 70 14 0 23 4 19 10 -8 13 -115 13 -115 1z"/>
<path d="M2040 1140 c0 -5 9 -10 20 -10 18 0 20 -7 20 -70 0 -90 18 -92 22 -2
3 61 5 67 26 70 44 7 21 22 -33 22 -30 0 -55 -4 -55 -10z"/>
<path d="M3337 1143 c-4 -3 -7 -40 -7 -80 0 -55 3 -74 13 -71 6 3 13 19 15 36
3 26 8 32 28 32 13 0 24 5 24 10 0 6 -11 10 -25 10 -20 0 -25 5 -25 25 0 21 5
25 31 25 17 0 28 4 24 10 -7 11 -68 14 -78 3z"/>
<path d="M5180 1141 c0 -5 10 -11 23 -13 20 -3 22 -9 25 -70 4 -90 22 -88 22
2 0 68 1 70 26 70 14 0 23 4 19 10 -8 13 -115 13 -115 1z"/>
<path d="M7030 1070 c0 -47 4 -80 10 -80 6 0 10 16 10 35 0 32 2 35 30 35 17
0 30 5 30 10 0 6 -13 10 -30 10 -25 0 -30 4 -30 25 0 21 5 25 30 25 17 0 30 5
30 10 0 6 -18 10 -40 10 l-40 0 0 -80z"/>
<path d="M3958 1113 c-28 -7 -21 -22 8 -20 15 1 29 -4 31 -10 3 -8 -4 -13 -15
-13 -25 0 -45 -23 -40 -47 2 -14 13 -18 46 -19 l42 -2 0 43 c0 61 -22 81 -72
68z m42 -78 c0 -8 -9 -15 -20 -15 -20 0 -26 11 -13 23 12 13 33 7 33 -8z"/>
<path d="M4123 1113 c-24 -9 -15 -53 13 -63 30 -12 23 -30 -12 -30 -14 0 -22
-4 -19 -10 9 -14 48 -13 63 2 19 19 14 37 -13 50 -31 14 -34 43 -4 35 13 -3
19 -1 16 6 -4 13 -26 18 -44 10z"/>
<path d="M4216 1107 c-21 -15 -24 -70 -6 -92 14 -16 65 -21 75 -6 3 5 -9 11
-27 13 -46 4 -47 26 -1 30 32 2 37 6 35 23 -4 21 -28 45 -47 45 -6 0 -19 -6
-29 -13z m52 -24 c2 -8 -6 -13 -22 -13 -25 0 -33 10 -19 24 10 10 36 3 41 -11z"/>
<path d="M5798 1113 c-28 -7 -21 -22 8 -20 33 2 44 -20 13 -25 -27 -4 -44 -29
-36 -52 4 -11 19 -16 47 -16 l40 0 0 44 c0 62 -22 82 -72 69z m42 -78 c0 -8
-9 -15 -20 -15 -20 0 -26 11 -13 23 12 13 33 7 33 -8z"/>
<path d="M5957 1105 c-20 -20 -11 -44 20 -56 29 -11 21 -29 -13 -29 -14 0 -22
-4 -19 -10 9 -14 48 -13 63 2 19 19 14 37 -13 50 -31 14 -34 43 -4 35 13 -3
19 -1 16 6 -6 19 -33 20 -50 2z"/>
<path d="M6059 1110 c-47 -27 -24 -110 31 -110 40 0 47 18 8 22 -46 4 -49 28
-4 28 32 0 36 3 36 25 0 14 -8 29 -19 35 -24 12 -31 12 -52 0z m49 -27 c2 -8
-6 -13 -22 -13 -25 0 -33 10 -19 24 10 10 36 3 41 -11z"/>
<path d="M1603 1094 c-8 -21 2 -99 12 -99 6 0 11 20 13 44 3 33 8 44 23 48 10
3 19 9 19 14 0 12 -62 6 -67 -7z"/>
<path d="M1690 1055 c0 -30 3 -56 8 -56 4 -1 24 -3 45 -4 l37 -2 0 58 c0 33
-4 59 -10 59 -5 0 -10 -17 -10 -39 0 -39 -20 -68 -40 -56 -5 3 -10 26 -10 51
0 24 -4 44 -10 44 -5 0 -10 -25 -10 -55z"/>
<path d="M1822 1098 c-17 -17 -15 -83 2 -97 17 -14 68 -11 73 4 2 6 -11 10
-29 10 -23 0 -34 5 -36 18 -3 14 4 17 37 17 45 0 48 5 25 38 -17 24 -53 29
-72 10z m56 -25 c2 -8 -6 -13 -22 -13 -25 0 -33 10 -19 24 10 10 36 3 41 -11z"/>
<path d="M2153 1094 c-8 -21 2 -99 12 -99 6 0 11 20 13 44 3 33 8 44 23 48 10
3 19 9 19 14 0 12 -62 6 -67 -7z"/>
<path d="M2230 1070 c0 -63 14 -81 58 -77 l37 4 0 52 c0 62 -19 73 -23 14 -2
-24 -7 -43 -13 -43 -5 0 -12 -1 -16 -2 -5 -2 -10 17 -13 41 -7 59 -30 68 -30
11z"/>
<path d="M2367 1092 c-37 -41 -6 -107 47 -100 33 4 30 22 -4 22 -15 1 -26 8
-28 19 -3 14 4 17 32 17 28 0 36 4 36 18 0 41 -54 57 -83 24z m61 -19 c2 -8
-6 -13 -22 -13 -25 0 -33 10 -19 24 10 10 36 3 41 -11z"/>
<path d="M3437 1103 c-13 -13 -7 -19 20 -18 14 0 28 -6 30 -12 3 -8 -5 -13
-20 -13 -13 0 -30 -7 -38 -16 -20 -24 1 -49 45 -51 l36 -1 0 47 c0 26 -5 52
-12 59 -13 13 -50 16 -61 5z m51 -75 c-7 -19 -38 -22 -38 -4 0 10 9 16 21 16
12 0 19 -5 17 -12z"/>
<path d="M3603 1103 c-22 -8 -14 -42 12 -59 14 -9 25 -21 25 -26 0 -6 -11 -8
-25 -6 -14 3 -25 2 -25 -3 0 -14 21 -21 46 -15 33 9 33 49 -1 64 -32 15 -32
32 1 32 14 0 23 4 19 10 -6 10 -31 12 -52 3z"/>
<path d="M3696 1094 c-21 -20 -20 -68 0 -89 18 -18 65 -17 71 2 3 7 -3 9 -16
6 -23 -6 -54 14 -45 28 3 5 21 9 40 9 23 0 34 5 34 14 0 20 -28 46 -50 46 -10
0 -26 -7 -34 -16z m54 -19 c0 -9 -9 -15 -25 -15 -24 0 -32 10 -18 23 12 13 43
7 43 -8z"/>
<path d="M5293 1094 c-8 -21 2 -99 12 -99 6 0 11 20 13 44 3 33 8 44 23 48 10
3 19 9 19 14 0 12 -62 6 -67 -7z"/>
<path d="M5370 1070 c0 -63 14 -81 58 -77 l37 4 0 52 c0 61 -17 73 -23 16 -7
-69 -38 -69 -44 -1 -4 55 -28 60 -28 6z"/>
<path d="M5507 1092 c-37 -41 -6 -107 47 -100 33 4 30 22 -4 22 -15 1 -26 8
-28 19 -3 14 4 17 32 17 28 0 36 4 36 18 0 41 -54 57 -83 24z m61 -19 c2 -8
-6 -13 -22 -13 -25 0 -33 10 -19 24 10 10 36 3 41 -11z"/>
<path d="M7130 1100 c-15 -10 -13 -11 29 -13 33 -3 40 -27 8 -27 -29 0 -50
-22 -45 -47 2 -14 13 -18 46 -19 l42 -2 0 47 c0 26 -5 52 -12 59 -14 14 -47
15 -68 2z m48 -76 c-9 -9 -21 -13 -27 -9 -16 10 -3 25 22 25 20 0 20 -1 5 -16z"/>
<path d="M7297 1103 c-16 -16 -6 -50 19 -61 27 -13 23 -35 -5 -30 -10 2 -20
-1 -22 -7 -6 -15 40 -18 57 -5 22 19 17 46 -11 58 -32 15 -32 32 1 32 14 0 23
4 19 10 -7 11 -48 14 -58 3z"/>
<path d="M7392 1098 c-7 -7 -12 -29 -12 -50 0 -41 23 -62 62 -56 35 5 31 23
-4 23 -49 0 -44 29 5 33 34 3 37 6 31 25 -4 12 -12 25 -18 29 -17 12 -51 9
-64 -4z m56 -25 c2 -8 -6 -13 -22 -13 -25 0 -33 10 -19 24 10 10 36 3 41 -11z"/>
<path d="M950 953 c-73 -38 -100 -122 -61 -193 67 -125 261 -77 261 65 0 104
-110 174 -200 128z"/>
<path d="M2594 600 c0 -190 2 -267 3 -172 2 94 2 250 0 345 -1 94 -3 17 -3
-173z"/>
<path d="M2792 750 c-68 -42 -91 -124 -52 -188 62 -102 214 -94 265 14 57 120
-96 245 -213 174z"/>
<path d="M4690 722 c-61 -10 -120 -84 -120 -149 0 -74 72 -143 149 -143 120 0
190 133 121 230 -33 46 -95 72 -150 62z"/>
<path d="M925 521 c-99 -60 -93 -191 11 -242 75 -36 153 -14 194 54 41 66 13
159 -57 192 -43 21 -111 19 -148 -4z"/>
</g>
</svg>
